<svg width="64" height="64" version="1.1" viewBox="0 0 64 64" xml:space="preserve" xmlns="http://www.w3.org/2000/svg" xmlns:xlink="http://www.w3.org/1999/xlink"><path d="m7 24.016v24.865c0 2.77 2.23 5 5 5h40c2.77 0 5-2.23 5-5v-24.865h-50zm18.088 3.8145c0.3473 0 0.69502 0.12269 0.96484 0.36914a1.0001 1.0001 0 0 1 0.021485 0.019531c0.17369 0.16788 0.30093 0.37627 0.37109 0.60742l2.209 6.7812h6.6484l2.2148-6.8184a1.0001 1.0001 0 0 1 0.017578-0.052734c0.079477-0.2055 0.20816-0.38884 0.37109-0.53711 0.5397-0.4916 1.3866-0.49248 1.9258 0a1.0001 1.0001 0 0 1 0.021485 0.019531c0.17369 0.16788 0.30093 0.37627 0.37109 0.60742l2.4336 7.4863 1.2676 3.7559a1.0001 1.0001 0 0 1 0.013672 0.039063c0.22488 0.77218-0.084473 1.6096-0.75586 2.0508l0.033203-0.021484-10.65 7.7402a1.0001 1.0001 0 0 1-1.1758 0l-10.65-7.7402a1.0001 1.0001 0 0 1-0.003906-0.003907c-0.63838-0.46949-0.90659-1.3061-0.6582-2.0586l1.2188-3.7734a1.0001 1.0001 0 0 0 0-0.001953l2.4414-7.5098a1.0001 1.0001 0 0 1 0.017578-0.052734c0.079476-0.2055 0.20622-0.38884 0.36914-0.53711 0.26982-0.24646 0.61559-0.36914 0.96289-0.36914zm-0.001953 3.2793-1.8867 5.8066-1.1855 3.6758 9.9648 7.2402 10.004-7.2695-1.2207-3.6152a1.0001 1.0001 0 0 1-0.003907-0.011719l-1.8926-5.8242-1.8848 5.8047a1.0001 1.0001 0 0 1-0.95117 0.69141h-8.1016a1.0001 1.0001 0 0 1-0.94922-0.68945l-1.8926-5.8086zm-3.1699 9.4102 0.005859 0.003907v-0.001954l-0.005859-0.001953z" fill="primary"/><path d="m37.605 11.746c-1.662 0-3 1.338-3 3v2.7501h-22.605c-2.77 0-5 2.23-5 5v0.5918h50v-8.3419c0-1.662-1.338-3-3-3z" fill="secondary"/></svg>
