<?xml version="1.0" encoding="UTF-8"?>
<svg enable-background="new 0 0 64 64" version="1.1" viewBox="0 0 64 64" xml:space="preserve" xmlns="http://www.w3.org/2000/svg">
<path d="m7 23.203v24.865c0 2.77 2.23 5 5 5h40c2.77 0 5-2.23 5-5v-24.865h-50zm22 4.9316a1.0001 1.0001 0 0 1 0.94922 0.68555l5.0508 15.15 2.0508-6.1504a1.0001 1.0001 0 0 1 0.94922-0.68555h4a1 1 0 0 1 1 1 1 1 0 0 1-1 1h-3.2793l-2.7715 8.3164a1.0001 1.0001 0 0 1-1.8984 0l-5.0508-15.152-2.0508 6.1523a1.0001 1.0001 0 0 1-0.94922 0.68359h-4a1 1 0 0 1-1-1 1 1 0 0 1 1-1h3.2793l2.7715-8.3145a1.0001 1.0001 0 0 1 0.94922-0.68555z" fill="primary"/><path d="m37.605 10.932c-1.662 0-3 1.338-3 3v2.7501h-22.605c-2.77 0-5 2.23-5 5v0.5918h50v-8.3419c0-1.662-1.338-3-3-3z" fill="secondary"/></svg>
