<svg width="64" height="64" version="1.1" viewBox="0 0 64 64" xml:space="preserve" xmlns="http://www.w3.org/2000/svg"><path d="m7 24.016v24.865c0 2.77 2.23 5 5 5h40c2.77 0 5-2.23 5-5v-24.865h-50zm25 4.9316a1 1 0 0 1 1 1v9.5879l3.293-3.2949a1 1 0 0 1 1.4141 0 1 1 0 0 1 0 1.4141l-5 5a1.0001 1.0001 0 0 1-0.44726 0.25976 1.0001 1.0001 0 0 1-0.12891 0.025391 1 1 0 0 1-0.13086 0.007813 1 1 0 0 1-0.25781-0.033204 1.0001 1.0001 0 0 0-0.001954 0 1 1 0 0 1-0.12305-0.042968 1.0001 1.0001 0 0 1-0.32422-0.2168l-5-5a1 1 0 0 1 0-1.4141 1 1 0 0 1 0.70703-0.29297 1 1 0 0 1 0.70703 0.29297l3.293 3.2949v-9.5879a1 1 0 0 1 1-1zm-9 12a1 1 0 0 1 1 1v4c0 0.56413 0.43587 1 1 1h14c0.56413 0 1-0.43587 1-1v-4a1 1 0 0 1 1-1 1 1 0 0 1 1 1v4c0 1.645-1.355 3-3 3h-14c-1.645 0-3-1.355-3-3v-4a1 1 0 0 1 1-1z" fill="primary"/><path d="m37.605 11.746c-1.662 0-3 1.338-3 3v2.7501h-22.605c-2.77 0-5 2.23-5 5v0.5918h50v-8.3419c0-1.662-1.338-3-3-3z" fill="secondary"/></svg>
