<svg width="64" height="64" version="1.1" viewBox="0 0 64 64" xml:space="preserve" xmlns="http://www.w3.org/2000/svg" xmlns:xlink="http://www.w3.org/1999/xlink"><path d="m7 24.016v24.865c0 2.77 2.23 5 5 5h40c2.77 0 5-2.23 5-5v-24.865h-50zm18.5 3.9316a1 1 0 0 1 1 1v3a1 1 0 0 1-1 1 1 1 0 0 1-1-1v-3a1 1 0 0 1 1-1zm4 0a1 1 0 0 1 1 1v3a1 1 0 0 1-1 1 1 1 0 0 1-1-1v-3a1 1 0 0 1 1-1zm4 0a1 1 0 0 1 1 1v3a1 1 0 0 1-1 1 1 1 0 0 1-1-1v-3a1 1 0 0 1 1-1zm-12 7h16 1c1.5833 0 2.8981 0.63171 3.748 1.5879 0.84994 0.95618 1.252 2.1899 1.252 3.4121s-0.40201 2.4579-1.252 3.4141c-0.84994 0.95618-2.1647 1.5859-3.748 1.5859 0 2.7496-2.2504 5-5 5h-8c-2.7496 0-5-2.2504-5-5v-9a1.0001 1.0001 0 0 1 1-1zm1 2v8c0 1.6687 1.3313 3 3 3h8c1.6687 0 3-1.3313 3-3v-1-7h-14zm16 0v6c1.0833 0 1.7686-0.36829 2.252-0.91211 0.48339-0.54382 0.74805-1.3101 0.74805-2.0879s-0.26465-1.5421-0.74805-2.0859c-0.48339-0.54382-1.1686-0.91406-2.252-0.91406z" fill="primary"/><path d="m37.605 11.746c-1.662 0-3 1.338-3 3v2.7501h-22.605c-2.77 0-5 2.23-5 5v0.5918h50v-8.3419c0-1.662-1.338-3-3-3z" fill="secondary"/></svg>
