<svg width="64" height="64" version="1.1" viewBox="0 0 64 64" xml:space="preserve" xmlns="http://www.w3.org/2000/svg" xmlns:xlink="http://www.w3.org/1999/xlink"><path d="m5.1033 24.016 1.8967 24.865c0.21069 2.762 2.23 5 5 5h40c2.77 0 5-2.23 5-5l2.1037-24.865zm17.897 6.9316h11c1.6447 0 3 1.3553 3 3v3.0566l5.418-3.8691c0.30474-0.21804 0.70579-0.24744 1.0391-0.07617 0.33311 0.17119 0.54265 0.51415 0.54297 0.88867v10c8.89e-4 0.81431-0.91977 1.2883-1.582 0.81445l-5.418-3.8691v3.0547c0 1.6447-1.3553 3-3 3h-11c-1.6447 0-3-1.3553-3-3v-10c0-1.6447 1.3553-3 3-3zm0 2c-0.5713 0-1 0.4287-1 1v10c0 0.5713 0.4287 1 1 1h11c0.5713 0 1-0.4287 1-1v-4.9395c-0.0024-0.03968-0.0024-0.07946 0-0.11914v-4.9414c0-0.5713-0.4287-1-1-1zm19 2.9453-4.2773 3.0547 4.2773 3.0566z" fill="primary"/><path d="m37.605 11.746c-1.662 0-3 1.338-3 3v2.7501h-22.605c-2.77 0-5 2.23-5 5v0.5918h50v-8.3419c0-1.662-1.338-3-3-3z" fill="secondary"/></svg>
