<?xml version="1.0" encoding="UTF-8"?>
<svg enable-background="new 0 0 64 64" version="1.1" viewBox="0 0 64 64" xml:space="preserve" xmlns="http://www.w3.org/2000/svg" xmlns:xlink="http://www.w3.org/1999/xlink">		
<path d="m7 23.203v24.865c0 2.77 2.23 5 5 5h40c2.77 0 5-2.23 5-5v-24.865h-50zm19.9 9.9277c1.5 0 2.8 0.69961 3.5 1.5996 0.6 0.5 1.0004 1.0992 1.4004 1.6992 0.4-0.6 0.89844-1.1992 1.3984-1.6992 1-0.9 2.2008-1.5996 3.8008-1.5996 0.7 0 1.3004 0.20039 1.9004 0.40039 0.6 0.3 1.0996 0.59961 1.5996 1.0996 0.5 0.4 0.89961 0.99961 1.0996 1.5996 0.3 0.6 0.40039 1.2004 0.40039 1.9004 0 0.6-0.20039 1.3004-0.40039 1.9004-0.3 0.6-0.59961 1.0996-1.0996 1.5996s-0.99961 0.89961-1.5996 1.0996c-0.6 0.3-1.2008 0.40039-1.8008 0.40039-1.5 0.1-2.6996-0.50039-3.5996-1.4004-0.6-0.6-1.1-1.3-1.5-2-0.4 0.7-0.9 1.4-1.5 2-0.9 0.9-2.0996 1.5004-3.5996 1.4004-0.6 0-1.2008-0.20039-1.8008-0.40039-0.6-0.3-1.0996-0.59961-1.5996-1.0996-0.5-0.4-0.89961-0.99961-1.0996-1.5996-0.3-0.6-0.40039-1.2004-0.40039-1.9004s0.10078-1.3004 0.30078-1.9004c0.3-0.6 0.59961-1.0996 1.0996-1.5996s0.99961-0.89961 1.5996-1.0996c0.6-0.3 1.3004-0.40039 1.9004-0.40039zm-1.4004 1.4004c-0.4 0.2-0.79961 0.49883-1.0996 0.79883-0.3 0.4-0.50117 0.80117-0.70117 1.2012-0.2 0.5-0.29883 0.89844-0.29883 1.3984 0 0.5 0.098828 1.0004 0.29883 1.4004 0.1 0.5 0.40117 0.90117 0.70117 1.2012 0.3 0.4 0.69961 0.59883 1.0996 0.79883s0.80078 0.30078 1.3008 0.30078c1.2 0.1 1.8996-0.3 2.5996-1 0.7-0.6 1.1988-1.5996 1.7988-2.5996-0.5-0.9-0.99961-1.7008-1.5996-2.3008-0.7-0.7-1.4988-1.1992-2.7988-1.1992-0.4 0-0.90078 0.1-1.3008 0zm11.6 0c-1.2 0-1.9988 0.5-2.7988 1.5-0.6 0.6-1.1016 1.3988-1.6016 2.2988 0.6 1 1.2008 1.9996 1.8008 2.5996 0.7 0.7 1.3996 1.1 2.5996 1 0.4-1e-6 0.90078-0.098829 1.3008-0.29883s0.79961-0.50078 1.0996-0.80078c0.3-0.4 0.49922-0.79922 0.69922-1.1992 0.2-0.5 0.30078-0.90039 0.30078-1.4004s-0.10078-1.0004-0.30078-1.4004c-0.1-0.5-0.39922-0.89922-0.69922-1.1992-0.3-0.4-0.69961-0.60078-1.0996-0.80078s-0.80078-0.29883-1.3008-0.29883zm-0.79883 1.5h1.3984v1.3984h1.4004v1.4004h-1.4004v1.4004h-1.3984v-1.4004h-1.4004v-1.4004h1.4004v-1.3984zm-11.5 1.3984h4.2988v1.4004h-4.2988v-1.4004z" fill="primary"/><path d="m37.605 10.932c-1.662 0-3 1.338-3 3v2.7501h-22.605c-2.77 0-5 2.23-5 5v0.5918h50v-8.3419c0-1.662-1.338-3-3-3z" fill="secondary"/>
</svg>
