<svg width="64" height="64" version="1.1" viewBox="0 0 64 64" xml:space="preserve" xmlns="http://www.w3.org/2000/svg" xmlns:xlink="http://www.w3.org/1999/xlink"><path d="m7 24.016v24.865c0 2.77 2.23 5 5 5h40c2.77 0 5-2.23 5-5v-24.865h-50zm25.791 3.9336c0.58423 0.043352 1.164 0.13312 1.7324 0.26562 4.5478 1.06 8.4996 4.9692 8.5 10.711v1c0 1.25-0.50476 2.3148-1.2734 2.998-0.76868 0.68327-1.7543 1.002-2.7266 1.002-0.97222 0-1.9579-0.31868-2.7266-1.002-0.21232-0.18873-0.40529-0.40759-0.57227-0.65039-0.91742 1.026-2.2486 1.6738-3.7246 1.6738-2.7496 0-5-2.2504-5-5 0-2.7496 2.2504-5 5-5 1.1336 0 2.1822 0.38308 3.0234 1.0254v-0.046875a1 1 0 0 1 1-1 1 1 0 0 1 1 1v5c0 0.75 0.24524 1.1872 0.60156 1.5039 0.35632 0.31673 0.87066 0.49609 1.3984 0.49609 0.52778 0 1.0421-0.17937 1.3984-0.49609 0.35632-0.31673 0.60156-0.75391 0.60156-1.5039v-1c-3.04e-4 -4.8421-3.1891-7.8864-6.9531-8.7637-3.764-0.87732-7.9737 0.44355-10.115 4.7812-2.1415 4.3377-0.62975 8.4827 2.3555 10.938 2.9852 2.4548 7.3413 3.1354 11.186 0.19141a1 1 0 0 1 1.4023 0.18555 1 1 0 0 1-0.1875 1.4023c-4.5585 3.491-10.065 2.7316-13.672-0.23438-3.6068-2.9659-5.417-8.2224-2.877-13.367 1.905-3.8586 5.3483-5.813 8.8691-6.1016 0.58681-0.048097 1.1755-0.051165 1.7598-0.007812zm-0.79102 7.998c-1.6687 1e-6 -3 1.3313-3 3 0 1.6687 1.3313 3 3 3 1.6687 0 3-1.3313 3-3 0-1.6687-1.3313-3-3-3z" fill="primary"/><path d="m37.605 11.746c-1.662 0-3 1.338-3 3v2.7501h-22.605c-2.77 0-5 2.23-5 5v0.5918h50v-8.3419c0-1.662-1.338-3-3-3z" fill="secondary"/></svg>
