<svg width="64" height="64" version="1.1" viewBox="0 0 64 64" xml:space="preserve" xmlns="http://www.w3.org/2000/svg" xmlns:xlink="http://www.w3.org/1999/xlink"><path d="m7 24.016v24.865c0 2.77 2.23 5 5 5h40c2.77 0 5-2.23 5-5v-24.865h-50zm18.539 3.4199c0.2395-0.006591 0.55652 0.016335 0.94922 0.10352 0.69025 0.15324 1.7214 0.64088 2.916 1.3809 2.2033-0.52812 4.4881-0.52812 6.6914 0 1.1946-0.73998 2.2258-1.2276 2.916-1.3809 0.3927-0.087175 0.70972-0.11012 0.94922-0.10352 0.2395 0.0066 0.48437 0.066406 0.48437 0.066406a1.0001 1.0001 0 0 1 0.63477 0.56445c0.53882 1.2571 0.55293 2.6427 0.20117 3.9531 0.90101 1.1342 1.4685 2.5014 1.4688 3.9609 0 2.9315-0.94309 4.9579-2.3984 6.1816-1.0331 0.86868-2.2459 1.2564-3.457 1.5137 0.25005 0.60548 0.39349 1.2504 0.35547 1.916-4.49e-4 0.00786 5e-4 0.015537 0 0.023437v3.8457a1 1 0 0 1-1 1 1 1 0 0 1-1-1v-3.8711a1.0001 1.0001 0 0 1 0.003906-0.078125c0.05341-0.67893-0.18808-1.347-0.66211-1.8359a1.0001 1.0001 0 0 1 0.60742-1.6895c1.4843-0.16545 2.8856-0.53172 3.8652-1.3555 0.97965-0.82375 1.6855-2.1219 1.6855-4.6504-2.1e-4 -1.1399-0.43866-2.235-1.2246-3.0605a1.0001 1.0001 0 0 1-0.21289-1.0391c0.28536-0.76461 0.26069-1.5781 0.072266-2.3613-0.49295 0.11493-1.3224 0.41023-2.5781 1.252a1.0001 1.0001 0 0 1-0.81836 0.13477c-2.1207-0.57477-4.3558-0.57477-6.4766 0a1.0001 1.0001 0 0 1-0.81836-0.13477c-1.2557-0.84172-2.0852-1.137-2.5781-1.252-0.18842 0.78324-0.21308 1.5967 0.072266 2.3613a1.0001 1.0001 0 0 1-0.21289 1.0391c-0.79182 0.83168-1.2307 1.9376-1.2246 3.0859a1.0001 1.0001 0 0 1 0 0.003907c0 2.507 0.70344 3.7953 1.6855 4.6211s2.3879 1.2018 3.877 1.3867a1.0001 1.0001 0 0 1 0.5957 1.6895c-0.46831 0.48392-0.70741 1.1407-0.66016 1.8125a1.0001 1.0001 0 0 1 0.001953 0.070313v3.8711a1 1 0 0 1-1 1 1 1 0 0 1-1-1v-1.9492c-0.74736 0.09893-1.5596 0.29452-2.1504 0.15625-0.94444-0.22104-1.66-0.72832-2.1816-1.25-0.52168-0.52168-0.88474-1.0534-1.1953-1.418-0.31058-0.36459-0.5192-0.51945-0.71484-0.56836a1 1 0 0 1-0.72852-1.2129 1 1 0 0 1 1.2129-0.72852c0.80436 0.20109 1.3457 0.73373 1.7539 1.2129 0.40817 0.47916 0.73262 0.94746 1.0859 1.3008 0.35332 0.35332 0.7003 0.59404 1.2246 0.7168 0.3724 0.087158 1.0527-0.041394 1.709-0.15625-0.031018-0.65064 0.096661-1.2807 0.3418-1.8711-1.2114-0.26705-2.4245-0.66138-3.459-1.5312-1.4518-1.2207-2.397-3.2371-2.3984-6.1465v-0.001953-0.003906c-0.006476-1.4697 0.56147-2.8481 1.4688-3.9902-0.35176-1.3105-0.33765-2.696 0.20117-3.9531a1.0001 1.0001 0 0 1 0.63477-0.56445c-1e-6 0 0.24488-0.059806 0.48437-0.066406z" fill="primary"/><path d="m37.605 11.746c-1.662 0-3 1.338-3 3v2.7501h-22.605c-2.77 0-5 2.23-5 5v0.5918h50v-8.3419c0-1.662-1.338-3-3-3z" fill="secondary"/></svg>
