<svg width="64" height="64" version="1.1" viewBox="0 0 64 64" xml:space="preserve" xmlns="http://www.w3.org/2000/svg" xmlns:xlink="http://www.w3.org/1999/xlink"><path d="m7 24.016v24.865c0 2.77 2.23 5 5 5h40c2.77 0 5-2.23 5-5v-24.865h-50zm29.65 8.1328c2.1 0 3.6992 1.6992 3.6992 3.6992s-1.5996 3.6012-3.5996 3.7012l-3.8008 2.6992v0.40039c0 1.7-1.3996 3.0996-3.0996 3.0996s-3.0996-1.3996-3.0996-3.0996v-0.20117l-3.0996-1.7988v-3.5996l4.9004 2.7988c0.5-0.2 0.89844-0.29883 1.3984-0.29883 0.2 0 0.50117-3.91e-4 0.70117 0.09961l2.2988-3.8008c0-2.1 1.7012-3.6992 3.7012-3.6992zm0 1.0996c-1.4 0-2.5996 1.1996-2.5996 2.5996s1.1996 2.5996 2.5996 2.5996 2.5996-1.1996 2.5996-2.5996-1.1996-2.5996-2.5996-2.5996zm0 1.0996c0.9 0 1.5996 0.69961 1.5996 1.5996s-0.69961 1.6016-1.5996 1.6016-1.5996-0.70156-1.5996-1.6016 0.69961-1.5996 1.5996-1.5996zm-6.8008 6.3008 0.09961 0.19922c0.8 0.4 1.0016 1.2996 0.60156 2.0996s-1.3016 1.0016-2.1016 0.60156l-0.69922-0.40039c0.2 1 1.0996 1.6992 2.0996 1.6992 1.2 0 2.0996-0.89961 2.0996-2.0996s-0.89961-2.0996-2.0996-2.0996z" fill="primary"/><path d="m37.605 11.746c-1.662 0-3 1.338-3 3v2.7501h-22.605c-2.77 0-5 2.23-5 5v0.5918h50v-8.3419c0-1.662-1.338-3-3-3z" fill="secondary"/></svg>
