<svg width="64" height="64" version="1.1" viewBox="0 0 64 64" xml:space="preserve" xmlns="http://www.w3.org/2000/svg" xmlns:xlink="http://www.w3.org/1999/xlink"><path d="m7 24.016v24.865c0 2.77 2.23 5 5 5h40c2.77 0 5-2.23 5-5v-24.865h-50zm20.426 4.7754c1.4667 0.07287 2.9841 0.70516 4.2734 1.9941l0.35352 0.35352 0.35156-0.35352c2.5303-2.5315 6.665-2.5315 9.1953 0 2.5315 2.5303 2.5315 6.665 0 9.1953l-8.8398 8.8398a1.0001 1.0001 0 0 1-1.4141 0l-7.7812-7.7793-1.0586-1.0605c-1.4735-1.4731-2.0914-3.2455-1.9941-4.8984 0.097245-1.653 0.86452-3.1653 1.9941-4.2949 1.1296-1.1296 2.6419-1.8967 4.2949-1.9941 0.20663-0.012179 0.41547-0.012363 0.625-0.001953zm-0.091797 1.9961c-0.13899-0.005637-0.27822-0.004215-0.41602 0.003907-1.1024 0.064973-2.1827 0.59477-2.998 1.4102s-1.3473 1.8959-1.4121 2.998c-0.064838 1.1021 0.29226 2.2476 1.4121 3.3672l8.1328 8.1328 7.0723-7.0742 1.0605-1.0586c1.7667-1.7659 1.7667-4.5993 0-6.3652a1.0001 1.0001 0 0 0 0-0.001953c-1.7659-1.7667-4.5993-1.7667-6.3652 0l-1.0605 1.0605a1.0001 1.0001 0 0 1-1.4141 0l-1.0605-1.0605c-0.97986-0.97962-1.9782-1.3726-2.9512-1.4121z" fill="primary"/><path d="m37.605 11.746c-1.662 0-3 1.338-3 3v2.7501h-22.605c-2.77 0-5 2.23-5 5v0.5918h50v-8.3419c0-1.662-1.338-3-3-3z" fill="secondary"/></svg>
