<svg width="64" height="64" version="1.1" viewBox="0 0 64 64" xml:space="preserve" xmlns="http://www.w3.org/2000/svg" xmlns:xlink="http://www.w3.org/1999/xlink"><path d="m7 24.016v24.865c0 2.77 2.23 5 5 5h40c2.77 0 5-2.23 5-5v-24.865h-50zm31 3.9316c2.1973 0 4 1.8027 4 4s-1.8027 4-4 4c-1.1051 0-2.1096-0.45664-2.8359-1.1895l-5.3164 3.1016c0.098314 0.3455 0.15234 0.7123 0.15234 1.0879 0 0.37605-0.051846 0.74201-0.15039 1.0879l5.3164 3.0977c0.7261-0.73094 1.7305-1.1855 2.834-1.1855 2.1973 0 4 1.8027 4 4s-1.8027 4-4 4-4-1.8027-4-4c0-0.37782 0.052903-0.74447 0.15234-1.0918l-5.3145-3.0977c-0.72638 0.73305-1.7326 1.1895-2.8379 1.1895-2.1973 0-4-1.8027-4-4s1.8027-4 4-4c1.1051 0 2.1096 0.45854 2.8359 1.1914l5.3164-3.1016v-0.001953c-0.098314-0.3455-0.15234-0.7123-0.15234-1.0879 0-2.1973 1.8027-4 4-4zm0 2c-1.1164 0-2 0.88359-2 2 0 0.33625 0.080125 0.65151 0.22266 0.92773a1 1 0 0 1 0.050782 0.080078 1 1 0 0 1 0.044921 0.085938c0.35419 0.54786 0.97125 0.90625 1.6816 0.90625 1.1164 0 2-0.88359 2-2s-0.88359-2-2-2zm-12 7c-1.1164 0-2 0.88359-2 2s0.88359 2 2 2c0.71038 0 1.3274-0.35645 1.6816-0.9043a1 1 0 0 1 0.044921-0.087891 1 1 0 0 1 0.050782-0.080078c0.14249-0.2762 0.22266-0.59154 0.22266-0.92773 0-0.33625-0.080126-0.64956-0.22266-0.92578a1 1 0 0 1-0.050782-0.080078 1 1 0 0 1-0.044921-0.08789c-0.35419-0.54785-0.97126-0.90625-1.6816-0.90625zm12 7c-0.69228 0-1.2943 0.33895-1.6523 0.86328a1 1 0 0 1-0.064453 0.13281 1 1 0 0 1-0.080078 0.11524c-0.13036 0.26681-0.20312 0.56803-0.20312 0.88867 0 1.1164 0.88359 2 2 2s2-0.88359 2-2-0.88359-2-2-2z" fill="primary"/><path d="m37.605 11.746c-1.662 0-3 1.338-3 3v2.7501h-22.605c-2.77 0-5 2.23-5 5v0.5918h50v-8.3419c0-1.662-1.338-3-3-3z" fill="secondary"/></svg>
