<svg width="64" height="64" version="1.1" viewBox="0 0 64 64" xml:space="preserve" xmlns="http://www.w3.org/2000/svg" xmlns:xlink="http://www.w3.org/1999/xlink"><path d="m7 24.016v24.865c0 2.77 2.23 5 5 5h40c2.77 0 5-2.23 5-5v-24.865h-50zm18 4.9316h14c1.6447 0 3 1.3553 3 3v10 4c0 1.6447-1.3553 3-3 3h-14c-1.6447 0-3-1.3553-3-3v-14c0-1.6447 1.3553-3 3-3zm0 2c-0.5713 0-1 0.4287-1 1v14c0 0.44517 0.26124 0.80282 0.64648 0.93945l10.646-10.645a1.0001 1.0001 0 0 1 1.4141 0l3.293 3.293v-7.5879c0-0.5713-0.4287-1-1-1h-14zm3.5 2c1.3689 0 2.5 1.1311 2.5 2.5s-1.1311 2.5-2.5 2.5-2.5-1.1311-2.5-2.5 1.1311-2.5 2.5-2.5zm0 2c-0.28799 0-0.5 0.21201-0.5 0.5s0.21201 0.5 0.5 0.5 0.5-0.21201 0.5-0.5-0.21201-0.5-0.5-0.5zm7.5 3.4141-8.5859 8.5859h11.586c0.5713 0 1-0.4287 1-1v-3.5859l-4-4z" fill="primary"/><path d="m37.605 11.746c-1.662 0-3 1.338-3 3v2.7501h-22.605c-2.77 0-5 2.23-5 5v0.5918h50v-8.3419c0-1.662-1.338-3-3-3z" fill="secondary"/></svg>
