<svg width="64" height="64" version="1.1" viewBox="0 0 64 64" xml:space="preserve" xmlns="http://www.w3.org/2000/svg"><path d="m7 24.016v24.865c0 2.77 2.23 5 5 5h40c2.77 0 5-2.23 5-5v-24.865h-50zm15 4.9395h6c1.6307 0 3.0858 0.79203 4 2.0098 0.91424-1.2177 2.3693-2.0098 4-2.0098h6a1.0001 1.0001 0 0 1 1 1v15a1.0001 1.0001 0 0 1-1 1h-7c-1.1164 0-2 0.88359-2 2a1.0001 1.0001 0 0 1-0.93164 0.98438 1.0001 1.0001 0 0 1-1.0684-0.98438c0-1.1164-0.88359-2-2-2h-7a1.0001 1.0001 0 0 1-1-1v-15a1.0001 1.0001 0 0 1 1-1zm1 2v13h6c0.74264 0 1.4019 0.26165 2 0.61914v-10.619c0-1.6687-1.3313-3-3-3h-5zm13 0c-1.6687 0-3 1.3313-3 3v10.619c0.59813-0.35749 1.2574-0.61914 2-0.61914h6v-13h-5z" fill="primary"/><path d="m37.605 11.746c-1.662 0-3 1.338-3 3v2.7501h-22.605c-2.77 0-5 2.23-5 5v0.5918h50v-8.3419c0-1.662-1.338-3-3-3z" fill="secondary"/></svg>
