<svg width="64" height="64" version="1.1" viewBox="0 0 64 64" xml:space="preserve" xmlns="http://www.w3.org/2000/svg" xmlns:xlink="http://www.w3.org/1999/xlink"><path d="m7 24.016v24.865c0 2.77 2.23 5 5 5h40c2.77 0 5-2.23 5-5v-24.865h-50zm26.4 7.2324h0.099609v4.8008l3-4.8008 2.8008 0.69922-3.7012 4.7012 3.5996 4.4004-2.8984 1.0996-2.9004-4.8008v4.0996l-2.9004 0.80078v-10.6l2.9004-0.40039zm-5.9004 2.9004c0.1-1e-6 0.10078-3.91e-4 0.30078 0.099609l1.8984 1.1992c0.2-0.1 0.40156-0.099219 0.60156-0.19922v0.80078c-1.5 0.5-2.6016 1.9992-2.6016 3.6992 0 2.2 1.8 4 4 4 1.7 0 3.1012-1.1 3.7012-2.5l0.69922 1.1992c0.1 0.2 0.20039 0.30117 0.40039 0.20117h0.099609l0.70117 1c0.1 0.1 0.1 0.30039 0 0.40039l-1.1016 1.0996c-0.1 0.1-0.29844 0.1-0.39844 0l-1.8008-1.3008-0.59961 0.30078-0.5 2.1992c-0.1 0.2-0.20078 0.30078-0.30078 0.30078h-1.5996c-0.2-1e-6 -0.30078-0.20078-0.30078-0.30078l-0.5-2.1992c-0.2-1e-6 -0.39961-0.10117-0.59961-0.20117l-1.9004 1.2012c-0.1 0.1-0.29844 0.1-0.39844 0l-1.1016-1.0996c-0.1-0.1-0.1-0.30039 0-0.40039l1.2012-1.9004c-0.1-0.1-0.10117-0.3-0.20117-0.5l-2.1992-0.5c-0.2-0.1-0.30078-0.20078-0.30078-0.30078v-1.3984c0-0.2 0.20078-0.30078 0.30078-0.30078l2.1992-0.5c0-0.2 0.10117-0.39961 0.20117-0.59961l-1.2012-1.9004c-0.1-0.1-0.1-0.30039 0-0.40039l1.1016-1.0996c0.1-0.1 0.099219-0.099609 0.19922-0.099609z" fill="primary"/><path d="m37.605 11.746c-1.662 0-3 1.338-3 3v2.7501h-22.605c-2.77 0-5 2.23-5 5v0.5918h50v-8.3419c0-1.662-1.338-3-3-3z" fill="secondary"/></svg>
