<svg width="64" height="64" version="1.1" viewBox="0 0 64 64" xml:space="preserve" xmlns="http://www.w3.org/2000/svg" xmlns:xlink="http://www.w3.org/1999/xlink"><path d="m7 24.016v24.865c0 2.77 2.23 5 5 5h40c2.77 0 5-2.23 5-5v-24.865h-50zm33.969 4.9336a1.0001 1.0001 0 0 1 1.0312 1v13a1 1 0 0 1-0.007812 0.13086c-0.07059 2.1369-1.8391 3.8691-3.9922 3.8691-2.1973 0-4-1.8027-4-4s1.8027-4 4-4c0.72683 0 1.4105 0.19748 2 0.54102v-8.3613l-10 1.668v12.152a1 1 0 0 1-0.007812 0.13086c-0.07059 2.1369-1.8391 3.8691-3.9922 3.8691-2.1973 0-4-1.8027-4-4s1.8027-4 4-4c0.72683 0 1.4105 0.19748 2 0.54102v-9.541a1.0001 1.0001 0 0 1 0.83594-0.98633l12-2a1.0001 1.0001 0 0 1 0.13281-0.013672zm-2.9688 12c-1.1164 0-2 0.88359-2 2s0.88359 2 2 2 2-0.88359 2-2-0.88359-2-2-2zm-12 2c-1.1164 0-2 0.88359-2 2s0.88359 2 2 2 2-0.88359 2-2-0.88359-2-2-2z" fill="primary"/><path d="m37.605 11.746c-1.662 0-3 1.338-3 3v2.7501h-22.605c-2.77 0-5 2.23-5 5v0.5918h50v-8.3419c0-1.662-1.338-3-3-3z" fill="secondary"/></svg>
