<?xml version="1.0" encoding="UTF-8"?>
<svg enable-background="new 0 0 64 64" version="1.1" viewBox="0 0 64 64" xml:space="preserve" xmlns="http://www.w3.org/2000/svg" xmlns:xlink="http://www.w3.org/1999/xlink">	
<path d="m7 23.203v24.865c0 2.77 2.23 5 5 5h40c2.77 0 5-2.23 5-5v-24.865h-50zm27.834 7.7832c0.1 0.7-0.30078 1.5004-0.80078 1.9004-0.5 0.5-1.2996 0.99844-2.0996 0.89844-0.1-0.7 0.29883-1.3984 0.79883-1.8984s1.4016-0.90039 2.1016-0.90039zm-0.10156 2.6992c0.5 0 1.8016 0.2 2.6016 1.5v0.001953c-1.81e-4 8.79e-4 -0.001592 0.002929-0.001953 0.003906-0.067055 0.13438-1.498 1.0391-1.498 2.8945 0 2.3 1.8984 3.0996 1.8984 3.0996 0 0.1-0.3 1.0992-1 2.1992-0.6 0.9-1.1992 1.9004-2.1992 1.9004-0.9 0-1.2008-0.59961-2.3008-0.59961s-1.3988 0.59961-2.2988 0.59961-1.6012-1.0004-2.2012-1.9004c-1.2-1.8-2.0984-5.2996-0.89844-7.5996 0.6-1.2 1.6984-1.8984 2.8984-1.8984 0.9 0 1.7008 0.69922 2.3008 0.69922 0.5 0 1.4008-0.59922 2.3008-0.69922 0.1 0 0.29844-0.001172 0.39844-0.20117z" fill="primary"/><path d="m37.605 10.932c-1.662 0-3 1.338-3 3v2.7501h-22.605c-2.77 0-5 2.23-5 5v0.5918h50v-8.3419c0-1.662-1.338-3-3-3z" fill="secondary"/>
</svg>
