<svg width="64" height="64" version="1.1" viewBox="0 0 64 64" xml:space="preserve" xmlns="http://www.w3.org/2000/svg" xmlns:xlink="http://www.w3.org/1999/xlink"><path d="m7 24.016v24.865c0 2.77 2.23 5 5 5h40c2.77 0 5-2.23 5-5v-24.865h-50zm24.992 7.7832c5.5591 0.33691 5.207 6.4316 5.207 9.7129 0 1.8 0.90156 3.2004 2.1016 4.4004h-3.9004c-0.3-0.8-0.60078-1.7-0.80078-2.5l-0.19922 0.19922c-0.4 0.4-0.9 0.70039-1.5 0.90039-0.2 0.1-0.40117 0.20039-0.70117 0.40039-0.6 0.4-1.1992 0.79883-2.1992 0.79883h-0.19922c-1-0.1-1.5004-0.50039-1.9004-0.90039-0.2-0.1-0.39961-0.29844-0.59961-0.39844s-0.30039-0.10117-0.40039-0.20117c-0.1 0.6-0.20039 1.2004-0.40039 1.9004h-1.8008c0.6-1.5 1.0016-3.0008 1.1016-4.3008 0.1-2.4-1.7-9.5 5-10 0.425-0.03125 0.8208-0.03418 1.1914-0.011719zm0.20703 5.2129c-1 0.1-1.7988 1.2-1.7988 2.5v0.099609l0.90039 0.30078v-0.10156c0-0.7 0.39844-1.2988 0.89844-1.2988 0.4 0 0.80078 0.59883 0.80078 1.2988 0 0.3-0.099219 0.60078-0.19922 0.80078 0.2 0.1 0.49883 0.20078 0.79883 0.30078 0.1 0 0.10117 0.09961 0.20117 0.09961 0.3-0.4 0.49883-0.99961 0.29883-1.5996 0-1.4-0.90039-2.4004-1.9004-2.4004zm-4.5332 0.39453c-0.021857 0.001007-0.044532 0.002734-0.066407 0.005859-0.7 0.1-1.2992 0.99922-1.1992 2.1992 0.1 0.6 0.20039 1.1004 0.40039 1.4004 0.1-0.1 0.19883-0.10117 0.29883-0.20117 0.1 0 0.20117-0.099609 0.20117-0.099609-0.1-0.2-0.20117-0.39922-0.20117-0.69922 0-0.7 0.19961-1.3008 0.59961-1.3008s0.70078 0.49961 0.80078 1.0996c0.1-0.1 0.39961-0.099219 0.59961-0.19922v-0.19922c-0.096875-1.0656-0.75604-2.0371-1.4336-2.0059zm2.1348 3.0059c-0.9 0-1.5008 0.59844-1.8008 0.89844l-0.099609 0.10156c-0.1 0-0.10078 0.099219-0.30078 0.19922s-0.39883 0.29961-0.79883 0.59961c-0.1 0.2-0.20117 0.3-0.20117 0.5 0 0.3 0.4 0.79961 1 1.0996 0.3 0.1 0.50117 0.3 0.70117 0.5 0.4 0.4 0.69844 0.70117 1.3984 0.70117h0.10156c0.7 0 1.1992-0.29961 1.6992-0.59961 0.3-0.2 0.60039-0.4 0.90039-0.5 0.8-0.2 1.5996-0.80039 1.5996-1.4004 0-0.4-0.39922-0.70078-0.69922-0.80078-0.3-0.1-0.60078-0.19883-0.80078-0.29883-0.3-0.1-0.60039-0.20039-0.90039-0.40039-0.7-0.4-1.2988-0.59961-1.7988-0.59961zm-2.1641 1.6348c0.0875-0.002905 0.17617 0.020703 0.26367 0.064453 0.3 0.2 0.89883 0.4 1.7988 0.5 0.7 0.1 1.8004 0.1 2.9004-0.5 0.2-0.1 0.5-7.81e-4 0.5 0.19922 0.1 0.2 7.82e-4 0.4-0.19922 0.5-1 0.5-2.0008 0.60156-2.8008 0.60156h-0.5c-0.9 0-1.6992-0.30156-2.1992-0.60156-0.2-0.2-0.19961-0.39961-0.09961-0.59961 0.1125-0.1125 0.22344-0.16033 0.33594-0.16406z" fill="primary"/><path d="m37.605 11.746c-1.662 0-3 1.338-3 3v2.7501h-22.605c-2.77 0-5 2.23-5 5v0.5918h50v-8.3419c0-1.662-1.338-3-3-3z" fill="secondary"/></svg>
