<svg width="64" height="64" version="1.1" viewBox="0 0 64 64" xml:space="preserve" xmlns="http://www.w3.org/2000/svg" xmlns:xlink="http://www.w3.org/1999/xlink"><path d="m7 24.016v24.865c0 2.77 2.23 5 5 5h40c2.77 0 5-2.23 5-5v-24.865h-50zm24.994 9.9336c2.4096 0 4.4361 1.7279 4.9004 4.0059a1 1 0 0 1 0.11133-0.007812h5.9492a1 1 0 0 1 1 1 1 1 0 0 1-1 1h-5.9492a1 1 0 0 1-0.11133-0.00586c-0.46425 2.278-2.4908 4.0059-4.9004 4.0059-2.4092 0-4.4357-1.7285-4.9004-4.0059a1 1 0 0 1-0.099609 0.00586h-5.9492a1 1 0 0 1-1-1 1 1 0 0 1 1-1h5.9492a1 1 0 0 1 0.099609 0.007812c0.46472-2.2773 2.4912-4.0059 4.9004-4.0059zm0 2c-1.6687 0-3 1.3313-3 3s1.3313 3 3 3c1.6687 0 3-1.3313 3-3s-1.3313-3-3-3z" fill="primary"/><path d="m37.605 11.746c-1.662 0-3 1.338-3 3v2.7501h-22.605c-2.77 0-5 2.23-5 5v0.5918h50v-8.3419c0-1.662-1.338-3-3-3z" fill="secondary"/></svg>
