<svg width="64" height="64" version="1.1" viewBox="0 0 64 64" xml:space="preserve" xmlns="http://www.w3.org/2000/svg" xmlns:xlink="http://www.w3.org/1999/xlink"><path d="m7 24.016v24.865c0 2.77 2.23 5 5 5h40c2.77 0 5-2.23 5-5v-24.865h-50zm19 3.9316h12a1.0001 1.0001 0 0 1 1 1v6h1c1.645 0 3 1.355 3 3v5c0 1.645-1.355 3-3 3h-1v3a1.0001 1.0001 0 0 1-1 1h-12a1.0001 1.0001 0 0 1-1-1v-3h-1c-1.645 0-3-1.355-3-3v-5c0-1.645 1.355-3 3-3h1v-6a1.0001 1.0001 0 0 1 1-1zm1 2v5h10v-5h-10zm-3 7c-0.56413 0-1 0.43587-1 1v5c0 0.56413 0.43587 1 1 1h1v-3a1.0001 1.0001 0 0 1 1-1h12a1.0001 1.0001 0 0 1 1 1v3h1c0.56413 0 1-0.43587 1-1v-5c0-0.56413-0.43587-1-1-1h-2-12-2zm3 5v3 3h10v-3-3h-10z" fill="primary"/><path d="m37.605 11.746c-1.662 0-3 1.338-3 3v2.7501h-22.605c-2.77 0-5 2.23-5 5v0.5918h50v-8.3419c0-1.662-1.338-3-3-3z" fill="secondary"/></svg>
