<svg width="64" height="64" version="1.1" viewBox="0 0 64 64" xml:space="preserve" xmlns="http://www.w3.org/2000/svg"><path d="m7 24.016v24.865c0 2.77 2.23 5 5 5h40c2.77 0 5-2.23 5-5v-24.865h-50zm24.783 4.9551c4.0811-0.06781 8.1253 2.3327 9.6504 6.6426a1 1 0 0 1-0.60938 1.2773 1 1 0 0 1-1.2773-0.60938c-1.9762-5.5846-9.0114-7.1762-13.199-2.9863a1.0001 1.0001 0 0 1-0.023437 0.021484l-2.7988 2.6309h3.4746a1 1 0 0 1 1 1 1 1 0 0 1-1 1h-5.9688-0.03125a1.0001 1.0001 0 0 1-0.072266-0.003907 1 1 0 0 1-0.042968-0.003906 1.0001 1.0001 0 0 1-0.13281-0.023437 1.0001 1.0001 0 0 1-0.13476-0.044922 1.0001 1.0001 0 0 1-0.125-0.0625 1 1 0 0 1-0.054688-0.03711 1.0001 1.0001 0 0 1-0.052734-0.035156 1 1 0 0 1-0.054688-0.050781 1.0001 1.0001 0 0 1-0.044922-0.039063 1 1 0 0 1-0.013672-0.013672 1 1 0 0 1-0.041015-0.048828 1.0001 1.0001 0 0 1-0.029297-0.037109 1 1 0 0 1-0.050781-0.074219 1.0001 1.0001 0 0 1-0.021485-0.035156 1 1 0 0 1-0.03125-0.064453 1.0001 1.0001 0 0 1-0.027344-0.058594 1 1 0 0 1-0.017578-0.054687 1.0001 1.0001 0 0 1-0.023437-0.070313 1 1 0 0 1-0.013672-0.068359 1.0001 1.0001 0 0 1-0.007813-0.054688 1 1 0 0 1-0.005859-0.08789 1.0001 1.0001 0 0 1-0.001953-0.03125v-0.03125-5.9688a1 1 0 0 1 1-1 1 1 0 0 1 1 1v3.6895l2.9336-2.7559c1.9392-1.9401 4.401-2.8695 6.8496-2.9102zm5.2168 10.977h5.9688 0.03125a1.0001 1.0001 0 0 1 0.072266 0.003906 1 1 0 0 1 0.037109 0.001953 1.0001 1.0001 0 0 1 0.005859 0.001953 1.0001 1.0001 0 0 1 0.13281 0.023438 1.0001 1.0001 0 0 1 0.13476 0.044922 1.0001 1.0001 0 0 1 0.11719 0.058593 1 1 0 0 1 0.007812 0.003907 1.0001 1.0001 0 0 1 0.10156 0.068359 1 1 0 0 1 0.005859 0.003906 1 1 0 0 1 0.054688 0.050781 1.0001 1.0001 0 0 1 0.037109 0.03125 1 1 0 0 1 0.007813 0.007813 1 1 0 0 1 0.013672 0.013672 1 1 0 0 1 0.041015 0.048828 1.0001 1.0001 0 0 1 0.023438 0.027344 1 1 0 0 1 0.005859 0.009765 1 1 0 0 1 0.050781 0.074219 1.0001 1.0001 0 0 1 0.015625 0.025391 1 1 0 0 1 0.00586 0.009765 1 1 0 0 1 0.03125 0.064453 1.0001 1.0001 0 0 1 0.027344 0.058594 1 1 0 0 1 0.017578 0.054688 1.0001 1.0001 0 0 1 0.023437 0.070312 1 1 0 0 1 0.013672 0.06836 1.0001 1.0001 0 0 1 0.007813 0.054687 1 1 0 0 1 0.005859 0.087891 1.0001 1.0001 0 0 1 0.001953 0.03125 1 1 0 0 1 0 0.03125v5.9688a1 1 0 0 1-1 1 1 1 0 0 1-1-1v-3.6895l-2.9336 2.7559c-5.1711 5.1737-14.06 3.1634-16.5-3.7324a1 1 0 0 1 0.60938-1.2773 1 1 0 0 1 1.2773 0.60938c1.9762 5.5846 9.0114 7.1762 13.199 2.9863a1.0001 1.0001 0 0 1 0.023437-0.021484l2.7988-2.6309h-3.4746a1 1 0 0 1-1-1 1 1 0 0 1 1-1z" fill="primary"/><path d="m37.605 11.746c-1.662 0-3 1.338-3 3v2.7501h-22.605c-2.77 0-5 2.23-5 5v0.5918h50v-8.3419c0-1.662-1.338-3-3-3z" fill="secondary"/></svg>
