<svg width="64" height="64" version="1.1" viewBox="0 0 64 64" xml:space="preserve" xmlns="http://www.w3.org/2000/svg" xmlns:xlink="http://www.w3.org/1999/xlink"><path d="m7 24.016v24.865c0 2.77 2.23 5 5 5h40c2.77 0 5-2.23 5-5v-24.865h-50zm17 6.9316a1 1 0 0 1 0.70703 0.29492l6 6a1.0001 1.0001 0 0 1 0 1.4121l-6 6a1 1 0 0 1-1.4141 0 1 1 0 0 1 0-1.4121l5.293-5.2949-5.293-5.293a1 1 0 0 1 0-1.4121 1 1 0 0 1 0.70703-0.29492zm8 14h8a1 1 0 0 1 1 1 1 1 0 0 1-1 1h-8a1 1 0 0 1-1-1 1 1 0 0 1 1-1z" fill="primary"/><path d="m37.605 11.746c-1.662 0-3 1.338-3 3v2.7501h-22.605c-2.77 0-5 2.23-5 5v0.5918h50v-8.3419c0-1.662-1.338-3-3-3z" fill="secondary"/></svg>
