<svg width="64" height="64" version="1.1" viewBox="0 0 64 64" xml:space="preserve" xmlns="http://www.w3.org/2000/svg"><path d="m5.1124 24.016 1.8876 24.865c0.20967 2.7621 2.23 5 5 5h40c2.77 0 5-2.23 5-5l2.0095-24.865zm20.888 3.9316h8c0.13137 2e-6 0.26145 0.02589 0.38281 0.07617 0.12126 0.05029 0.23142 0.12395 0.32422 0.2168l6 6c0.03073 0.03065 0.05944 0.06327 0.08594 0.09766 0.02645 0.03484 0.0506 0.07138 0.07227 0.10938 0.02207 0.03774 0.04165 0.07689 0.05859 0.11719v2e-3c0.0169 0.0394 0.03126 0.07985 0.04297 0.12109v2e-3c0.0112 0.04172 0.01968 0.08413 0.02539 0.12695 0.0055 0.0434 0.0081 0.08712 0.0078 0.13086v12c0 1.645-1.355 3-3 3h-12c-1.645 0-3-1.355-3-3v-16c0-1.645 1.355-3 3-3zm0 2c-0.56413 0-1 0.43587-1 1v16c0 0.56413 0.43587 1 1 1h12c0.56413 0 1-0.43587 1-1v-11h-5c-0.55226-5.5e-5 -0.99994-0.44774-1-1v-5zm9 1.416v2.584h2.584zm-7 3.584h2c0.55228 0 1 0.44772 1 1s-0.44772 1-1 1h-2c-0.55228 0-1-0.44772-1-1s0.44772-1 1-1zm0 4h8c0.55228 0 1 0.44772 1 1s-0.44772 1-1 1h-8c-0.55228 0-1-0.44772-1-1s0.44772-1 1-1zm0 4h8c0.55228 0 1 0.44772 1 1s-0.44772 1-1 1h-8c-0.55228 0-1-0.44772-1-1s0.44772-1 1-1z" fill="primary"/><path d="m37.605 11.746c-1.662 0-3 1.338-3 3v2.7501h-22.605c-2.77 0-5 2.23-5 5v0.5918h50v-8.3419c0-1.662-1.338-3-3-3z" fill="secondary"/></svg>
