<svg width="64" height="64" version="1.1" viewBox="0 0 64 64" xml:space="preserve" xmlns="http://www.w3.org/2000/svg" xmlns:xlink="http://www.w3.org/1999/xlink"><path d="m7 24.016v24.865c0 2.77 2.23 5 5 5h40c2.77 0 5-2.23 5-5v-24.865h-50zm34.012 4.3691a1 1 0 0 1 0.70703 0.29297 1 1 0 0 1 0 1.4141l-1.293 1.293 2.293 2.293a1.0001 1.0001 0 0 1 0 1.4141l-3.5 3.5a1.0001 1.0001 0 0 1-1.4141 0l-2.293-2.293-2.834 2.834c0.97692 1.2884 1.5298 2.6946 1.4531 4.0586-0.093327 1.6597-0.86199 3.1803-1.9961 4.3145s-2.6528 1.9028-4.3125 1.9961c-1.6597 0.093328-3.4379-0.5352-4.9102-2.0273a1.0001 1.0001 0 0 1-0.007812-0.007812c-1.4243-1.4747-2.0115-3.2325-1.9043-4.8672s0.86711-3.1269 1.9844-4.2441 2.6114-1.8772 4.2461-1.9844c1.3435-0.088115 2.7354 0.43202 4.0195 1.3613l9.0547-9.0547a1 1 0 0 1 0.70703-0.29297zm-2 4.4141-2.0859 2.0859 1.5859 1.5859 2.0859-2.0859-1.5859-1.5859zm-11.238 5.5605c-0.13767-0.00456-0.27573-0.001087-0.41211 0.007813-1.0918 0.071606-2.158 0.59749-2.9629 1.4023-0.80485 0.80485-1.3307 1.8692-1.4023 2.9609-0.071529 1.0906 0.26941 2.2277 1.3457 3.3438 1.1185 1.1309 2.2632 1.4918 3.3672 1.4297 1.1059-0.062186 2.1926-0.59297 3.0117-1.4121s1.3519-1.9058 1.4141-3.0117c0.061997-1.1025-0.30041-2.2481-1.4277-3.3652l-0.001953-0.001953c-0.97694-0.94266-1.968-1.3217-2.9316-1.3535z" fill="primary"/><path d="m37.605 11.746c-1.662 0-3 1.338-3 3v2.7501h-22.605c-2.77 0-5 2.23-5 5v0.5918h50v-8.3419c0-1.662-1.338-3-3-3z" fill="secondary"/></svg>
