<svg width="64" height="64" version="1.1" viewBox="0 0 64 64" xml:space="preserve" xmlns="http://www.w3.org/2000/svg"><path d="m7 24.016v24.865c0 2.77 2.23 5 5 5h40c2.77 0 5-2.23 5-5v-24.865h-50zm21.912 3.9355c3.6755-0.009456 7.1731 2.2801 8.498 5.9941h0.58594a1.0001 1.0001 0 0 0 0.001953 0c3.1619 0.003721 5.3389 2.2522 5.8652 4.7734s-0.56858 5.4542-3.4648 6.7227a1 1 0 0 1-1.3184-0.51562 1 1 0 0 1 0.51562-1.3164c2.0612-0.90274 2.6705-2.7581 2.3105-4.4824s-1.6599-3.179-3.9102-3.1816h-1.2598a1.0001 1.0001 0 0 1-0.96875-0.75c-1.2022-4.6552-6.5464-6.7384-10.582-4.125-4.0356 2.6134-4.3205 8.3423-0.56445 11.344a1 1 0 0 1 0.15625 1.4043 1 1 0 0 1-1.4043 0.1582c-4.7766-3.817-4.4056-11.263 0.72656-14.586 1.283-0.83086 2.6795-1.2852 4.0762-1.4062 0.24603-0.021322 0.4913-0.032573 0.73633-0.033203zm-0.91602 13.994h0.009765a1 1 0 0 1 1 1 1 1 0 0 1-1 1h-0.009765a1 1 0 0 1-1-1 1 1 0 0 1 1-1zm8 0h0.009765a1 1 0 0 1 1 1 1 1 0 0 1-1 1h-0.009765a1 1 0 0 1-1-1 1 1 0 0 1 1-1zm-4 2h0.009765a1 1 0 0 1 1 1 1 1 0 0 1-1 1h-0.009765a1 1 0 0 1-1-1 1 1 0 0 1 1-1zm-4 2h0.009765a1 1 0 0 1 1 1 1 1 0 0 1-1 1h-0.009765a1 1 0 0 1-1-1 1 1 0 0 1 1-1zm8 0h0.009765a1 1 0 0 1 1 1 1 1 0 0 1-1 1h-0.009765a1 1 0 0 1-1-1 1 1 0 0 1 1-1zm-4 2h0.009765a1 1 0 0 1 1 1 1 1 0 0 1-1 1h-0.009765a1 1 0 0 1-1-1 1 1 0 0 1 1-1z" fill="primary"/><path d="m37.605 11.746c-1.662 0-3 1.338-3 3v2.7501h-22.605c-2.77 0-5 2.23-5 5v0.5918h50v-8.3419c0-1.662-1.338-3-3-3z" fill="secondary"/></svg>
