<svg width="64" height="64" version="1.1" viewBox="0 0 64 64" xml:space="preserve" xmlns="http://www.w3.org/2000/svg" xmlns:xlink="http://www.w3.org/1999/xlink"><path d="m7 24.016v24.865c0 2.77 2.23 5 5 5h40c2.77 0 5-2.23 5-5v-24.865h-50zm19 3.9316h7a1.0001 1.0001 0 0 1 0.26367 0.035156 1 1 0 0 1 0.10742 0.037109 1.0001 1.0001 0 0 1 0.011718 0.003907 1 1 0 0 1 0.00586 0.003906 1.0001 1.0001 0 0 1 0.11133 0.05664 1 1 0 0 1 0.007812 0.001954 1.0001 1.0001 0 0 1 0.052735 0.037109 1 1 0 0 1 0.058594 0.039062 1.0001 1.0001 0 0 1 0.039062 0.035157 1 1 0 0 1 0.058594 0.052734l6.9902 6.9902a1 1 0 0 1 0.078125 0.087891 1.0001 1.0001 0 0 1 0.007813 0.011719 1 1 0 0 1 0.068359 0.10156 1.0001 1.0001 0 0 1 0.003906 0.00586 1 1 0 0 1 0.056641 0.11133 1.0001 1.0001 0 0 1 0.005859 0.017578 1 1 0 0 1 0.03711 0.10742 1.0001 1.0001 0 0 1 0.035156 0.26367v11c0 1.645-1.355 3-3 3h-12c-1.645 0-3-1.355-3-3v-16c0-1.645 1.355-3 3-3zm0 2c-0.56413 0-1 0.43587-1 1v16c0 0.56413 0.43587 1 1 1h12c0.56413 0 1-0.43587 1-1v-10h-6a1.0001 1.0001 0 0 1-1-1v-6h-6zm8 1.416v3.584h3.5859l-3.5859-3.584z" fill="primary"/><path d="m37.605 11.746c-1.662 0-3 1.338-3 3v2.7501h-22.605c-2.77 0-5 2.23-5 5v0.5918h50v-8.3419c0-1.662-1.338-3-3-3z" fill="secondary"/></svg>
