<svg width="64" height="64" version="1.1" viewBox="0 0 64 64" xml:space="preserve" xmlns="http://www.w3.org/2000/svg" xmlns:xlink="http://www.w3.org/1999/xlink"><path d="m7 24.016v24.865c0 2.77 2.23 5 5 5h40c2.77 0 5-2.23 5-5v-24.865h-50zm25 10.732c2.3 0 4.1992 1.8992 4.1992 4.1992s-1.8992 4.2012-4.1992 4.2012c-2.3-1e-6 -4.1992-1.9012-4.1992-4.2012s1.8992-4.1992 4.1992-4.1992zm-7.3008 1c1.7 0 3.1016 1.3996 3.1016 3.0996s-1.4016 3.0996-3.1016 3.0996-3.0996-1.3996-3.0996-3.0996 1.3996-3.0996 3.0996-3.0996zm14.602 0c1.7 0 3.0996 1.3996 3.0996 3.0996s-1.3996 3.0996-3.0996 3.0996-3.1016-1.3996-3.1016-3.0996 1.4016-3.0996 3.1016-3.0996zm-7.3008 1.0996c-1.2 0-2.0996 0.89961-2.0996 2.0996s0.89961 2.1016 2.0996 2.1016 2.0996-0.90156 2.0996-2.1016-0.89961-2.0996-2.0996-2.0996zm-7.3008 1c-0.6 0-1 0.5-1 1s0.5 1 1 1 1-0.5 1-1-0.4-1-1-1zm14.602 0c-0.6 0-1 0.5-1 1s0.5 1 1 1 1-0.5 1-1-0.4-1-1-1z" fill="primary"/><path d="m37.605 11.746c-1.662 0-3 1.338-3 3v2.7501h-22.605c-2.77 0-5 2.23-5 5v0.5918h50v-8.3419c0-1.662-1.338-3-3-3z" fill="secondary"/></svg>
