<svg width="64" height="64" version="1.1" viewBox="0 0 64 64" xml:space="preserve" xmlns="http://www.w3.org/2000/svg" xmlns:xlink="http://www.w3.org/1999/xlink"><path d="m7 24.016v24.865c0 2.77 2.23 5 5 5h40c2.77 0 5-2.23 5-5v-24.865h-50zm24 8.2148c1.9 0 2.4992 0.89961 3.1992 1.5996-1.2 0.1-2.4992 0.29961-3.6992 0.59961-1.3 0.3-2.6012 0.80078-3.7012 1.3008 1-1.4 1.0012-3.5 4.2012-3.5zm4.2988 3c3.1-0.1 5.2012 0.80078 5.7012 2.3008 0.3 1.3-0.79961 3.1-3.0996 4.5-0.2-0.8-0.80039-1.4012-1.4004-1.7012-0.8-0.4-1.6-0.59961-2.5-0.59961-0.6 0-1.2008 0.099218-1.8008 0.19922-1.2 0.3-2.2992 0.8-3.1992 1.5-0.9 0.7-1.6 1.7-1.5 3v0.10156c-2.5-0.2-4.2-1.3-4.5-2.5-0.5-2.2 3.0004-4.9012 7.9004-6.2012 1.5-0.4 2.9984-0.59961 4.3984-0.59961zm-1.2988 5.9004c1.4 0.1 2.4 0.6 2.5 1.5 0.1 1.1-1.4 2.4004-3.5 2.9004-2.1 0.4-3.9-0.10078-4-1.3008-0.1-1.1 1.4-2.4004 3.5-2.9004 0.5-0.2 1-0.19922 1.5-0.19922z" fill="primary"/><path d="m37.605 11.746c-1.662 0-3 1.338-3 3v2.7501h-22.605c-2.77 0-5 2.23-5 5v0.5918h50v-8.3419c0-1.662-1.338-3-3-3z" fill="secondary"/></svg>
