<svg width="64" height="64" version="1.1" viewBox="0 0 64 64" xml:space="preserve" xmlns="http://www.w3.org/2000/svg"><path d="m7 24.016v24.865c0 2.77 2.23 5 5 5h40c2.77 0 5-2.23 5-5v-24.865h-50zm25 3.9316c6.0633 0 11 4.9367 11 11 0 6.0633-4.9367 11-11 11s-11-4.9367-11-11c0-6.0633 4.9367-11 11-11zm0 2c-4.9824 0-9 4.0176-9 9 0 4.9824 4.0176 9 9 9s9-4.0176 9-9c0-4.9824-4.0176-9-9-9zm0 5c2.1973 0 4 1.8027 4 4 0 2.1973-1.8027 4-4 4s-4-1.8027-4-4c0-2.1973 1.8027-4 4-4zm0 2c-1.1164 0-2 0.88358-2 2 0 1.1164 0.88359 2 2 2s2-0.88359 2-2c0-1.1164-0.88359-2-2-2z" fill="primary"/><path d="m37.605 11.746c-1.662 0-3 1.338-3 3v2.7501h-22.605c-2.77 0-5 2.23-5 5v0.5918h50v-8.3419c0-1.662-1.338-3-3-3z" fill="secondary"/></svg>
