<svg width="64" height="64" version="1.1" viewBox="0 0 64 64" xml:space="preserve" xmlns="http://www.w3.org/2000/svg"><path d="m7 24.016v24.865c0 2.77 2.23 5 5 5h40c2.77 0 5-2.23 5-5v-24.865h-50zm21.389 5.9648c3.7884-0.21761 7.5836 1.9739 9.002 5.9492h0.60547c3.3019 0 6 2.6981 6 6 0 3.3019-2.6981 6-6 6h-9c-7.4164 0.003954-11.663-8.6447-7.123-14.51 1.7025-2.1996 4.094-3.3004 6.5156-3.4395zm0.74414 1.9062c-0.19539-4e-3 -0.39033-7.11e-4 -0.58594 0.011719-1.8779 0.11932-3.7411 1.0009-5.0918 2.7461-3.602 4.6537-0.34422 11.29 5.541 11.285h9c2.221 0 4-1.779 4-4 0-2.221-1.779-4-4-4h-1.2598a1.0001 1.0001 0 0 1-0.9668-0.75c-0.8621-3.3389-3.7059-5.233-6.6367-5.293z" fill="primary"/><path d="m37.605 11.746c-1.662 0-3 1.338-3 3v2.7501h-22.605c-2.77 0-5 2.23-5 5v0.5918h50v-8.3419c0-1.662-1.338-3-3-3z" fill="secondary"/></svg>
