<svg width="64" height="64" version="1.1" viewBox="0 0 64 64" xml:space="preserve" xmlns="http://www.w3.org/2000/svg" xmlns:xlink="http://www.w3.org/1999/xlink"><path d="m7 24.016v24.865c0 2.77 2.23 5 5 5h40c2.77 0 5-2.23 5-5v-24.865h-50zm24.916 3.9316c2.6034-0.037864 5.3123 1.5912 5.9648 4.8047a1 1 0 0 1-0.78125 1.1797 1 1 0 0 1-1.1797-0.78125c-0.50458-2.4849-2.4225-3.3755-4.3223-3.1836-1.8998 0.1919-3.6002 1.4488-3.5977 3.9844v3h11c1.6447 0 3 1.3553 3 3v7c0 1.6447-1.3553 3-3 3h-14c-1.6447 0-3-1.3553-3-3v-7c0-1.6447 1.3553-3 3-3h1v-2.998c-0.003515-3.4977 2.6449-5.6986 5.3965-5.9766 0.17197-0.01737 0.34597-0.026796 0.51953-0.029296zm-6.916 11.004c-0.5713 0-1 0.4287-1 1v7c0 0.5713 0.4287 1 1 1h14c0.5713 0 1-0.4287 1-1v-7c0-0.5713-0.4287-1-1-1h-12-2z" fill="primary"/><path d="m37.605 11.746c-1.662 0-3 1.338-3 3v2.7501h-22.605c-2.77 0-5 2.23-5 5v0.5918h50v-8.3419c0-1.662-1.338-3-3-3z" fill="secondary"/></svg>
