<svg width="64" height="64" version="1.1" viewBox="0 0 64 64" xml:space="preserve" xmlns="http://www.w3.org/2000/svg" xmlns:xlink="http://www.w3.org/1999/xlink"><path d="m7 24.016v24.865c0 2.77 2.23 5 5 5h40c2.77 0 5-2.23 5-5v-24.865h-50zm16 4.9316h7a1.0001 1.0001 0 0 1 1 1v7a1.0001 1.0001 0 0 1-1 1h-7a1.0001 1.0001 0 0 1-1-1v-7a1.0001 1.0001 0 0 1 1-1zm11 0h7a1.0001 1.0001 0 0 1 1 1v7a1.0001 1.0001 0 0 1-1 1h-7a1.0001 1.0001 0 0 1-1-1v-7a1.0001 1.0001 0 0 1 1-1zm-10 2v5h5v-5h-5zm11 0v5h5v-5h-5zm-12 9h7a1.0001 1.0001 0 0 1 1 1v7a1.0001 1.0001 0 0 1-1 1h-7a1.0001 1.0001 0 0 1-1-1v-7a1.0001 1.0001 0 0 1 1-1zm11 0h7a1.0001 1.0001 0 0 1 1 1v7a1.0001 1.0001 0 0 1-1 1h-7a1.0001 1.0001 0 0 1-1-1v-7a1.0001 1.0001 0 0 1 1-1zm-10 2v5h5v-5h-5zm11 0v5h5v-5h-5z" fill="primary"/><path d="m37.605 11.746c-1.662 0-3 1.338-3 3v2.7501h-22.605c-2.77 0-5 2.23-5 5v0.5918h50v-8.3419c0-1.662-1.338-3-3-3z" fill="secondary"/></svg>
