<svg width="64" height="64" version="1.1" viewBox="0 0 64 64" xml:space="preserve" xmlns="http://www.w3.org/2000/svg" xmlns:xlink="http://www.w3.org/1999/xlink"><path d="m5.1033 24.016 1.8967 24.865c0.21069 2.762 2.23 5 5 5h40c2.77 0 5-2.23 5-5l2.1037-24.865zm20.897 3.9316h7c0.08906-7.4e-5 0.17774 0.01175 0.26367 0.03516 0.03648 0.01032 0.07235 0.02271 0.10742 0.03711 0.0039 0.0013 0.0078 0.0026 0.01172 0.0039 2e-3 0.0013 0.0039 0.0026 0.0059 0.0039 0.03825 0.01654 0.07543 0.03546 0.11133 0.05664 0.0026 6.41e-4 0.0052 0.0013 0.0078 2e-3 0.01797 0.0118 0.03556 0.02418 0.05273 0.03711 0.01998 0.01233 0.03953 0.02536 0.05859 0.03906 0.01333 0.01137 0.02635 0.0231 0.03906 0.03516 0.02022 0.0168 0.03976 0.03439 0.05859 0.05273l6.9903 6.9903c0.02774 0.02774 0.05383 0.05709 0.07813 0.08789 0.0026 0.0039 0.0052 0.0078 0.0078 0.01172 0.02484 0.03243 0.04767 0.06634 0.06836 0.10156 0.0013 0.0019 0.0026 0.0039 0.0039 0.0059 0.02118 0.03589 0.0401 0.07308 0.05664 0.11133 2e-3 0.0058 4e-3 0.0117 0.0059 0.01758 0.0144 0.03507 0.02679 0.07094 0.03711 0.10742 0.02341 0.08593 0.03523 0.17461 0.03516 0.26367v11c0 1.645-1.355 3-3 3h-12c-1.645 0-3-1.355-3-3v-16c0-1.645 1.355-3 3-3zm0 2c-0.56413 0-1 0.43587-1 1v16c0 0.56413 0.43587 1 1 1h12c0.56413 0 1-0.43587 1-1v-10h-6c-0.55226-5.5e-5 -0.99994-0.44774-1-1v-6zm8 1.416v3.584h3.5859z" fill="primary"/><path d="m37.605 11.746c-1.662 0-3 1.338-3 3v2.7501h-22.605c-2.77 0-5 2.23-5 5v0.5918h50v-8.3419c0-1.662-1.338-3-3-3z" fill="secondary"/></svg>
