<?xml version="1.0" encoding="UTF-8"?>
<svg enable-background="new 0 0 64 64" version="1.1" viewBox="0 0 64 64" xml:space="preserve" xmlns="http://www.w3.org/2000/svg" xmlns:xlink="http://www.w3.org/1999/xlink">	
<path d="m7 23.203v24.865c0 2.77 2.23 5 5 5h40c2.77 0 5-2.23 5-5v-24.865h-50zm18.699 10.232c0.3 0 0.50156 0.10039 0.60156 0.40039l1.6992 2.2988c1.2-0.7 2.6-1.0996 4-1.0996 1.5 0 2.8 0.39961 4 1.0996l1.5996-2.3984c0.1-0.2 0.29961-0.30078 0.59961-0.30078 0.2 0 0.4 0.099219 0.5 0.19922 0.4 0.3 0.50117 0.80156 0.20117 1.1016l-1.7012 2.2988c1.4 1.2 2.4016 3 2.6016 5 0 0.8-0.80078 0.80078-0.80078 0.80078h-14s-0.80078-7.82e-4 -0.80078-0.80078c0.2-2 1.2016-3.7996 2.6016-5.0996l-1.7012-2.3008c-0.1-0.1-0.19922-0.19844-0.19922-0.39844 0-0.4 0.39883-0.80078 0.79883-0.80078z" fill="primary"/><path d="m37.605 10.932c-1.662 0-3 1.338-3 3v2.7501h-22.605c-2.77 0-5 2.23-5 5v0.5918h50v-8.3419c0-1.662-1.338-3-3-3z" fill="secondary"/></svg>
