<svg width="64" height="64" version="1.1" viewBox="0 0 64 64" xml:space="preserve" xmlns="http://www.w3.org/2000/svg" xmlns:xlink="http://www.w3.org/1999/xlink"><path d="m7 24.016v24.865c0 2.77 2.23 5 5 5h40c2.77 0 5-2.23 5-5v-24.865h-50zm25 3.9316c1.4722 0 2.9579 0.48535 4.1016 1.502 1.1437 1.0166 1.8984 2.5814 1.8984 4.498v3h1c1.6447 0 3 1.3553 3 3v7c0 1.6447-1.3553 3-3 3h-14c-1.6447 0-3-1.3553-3-3v-7c0-1.6447 1.3553-3 3-3h1v-3c0-1.9167 0.75476-3.4814 1.8984-4.498 1.1437-1.0166 2.6293-1.502 4.1016-1.502zm0 2c-1.0278 0-2.0421 0.34799-2.7734 0.99805-0.73132 0.65006-1.2266 1.5853-1.2266 3.002v3h8v-3c0-1.4167-0.49524-2.3519-1.2266-3.002-0.73132-0.65006-1.7457-0.99805-2.7734-0.99805zm-7 9c-0.5713 0-1 0.4287-1 1v7c0 0.5713 0.4287 1 1 1h14c0.5713 0 1-0.4287 1-1v-7c0-0.5713-0.4287-1-1-1h-2-10-2z" fill="primary"/><path d="m37.605 11.746c-1.662 0-3 1.338-3 3v2.7501h-22.605c-2.77 0-5 2.23-5 5v0.5918h50v-8.3419c0-1.662-1.338-3-3-3z" fill="secondary"/></svg>
