<svg width="64" height="64" version="1.1" viewBox="0 0 64 64" xml:space="preserve" xmlns="http://www.w3.org/2000/svg" xmlns:xlink="http://www.w3.org/1999/xlink"><path d="m7 24.016v24.865c0 2.77 2.23 5 5 5h40c2.77 0 5-2.23 5-5v-24.865h-50zm25 3.9316c6.0633 0 11 4.9367 11 11s-4.9367 11-11 11-11-4.9367-11-11 4.9367-11 11-11zm-2.2715 2.2871c-3.5645 0.92229-6.2624 3.9663-6.6738 7.7129h3.9961c0.22425-2.7642 1.1499-5.4178 2.6777-7.7129zm4.543 0c1.5278 2.2951 2.4535 4.9487 2.6777 7.7129h3.9961c-0.41141-3.7466-3.1093-6.7906-6.6738-7.7129zm-2.2715 0.56445c-1.5754 2.1078-2.6624 4.5397-2.9336 7.1484h5.8672c-0.27119-2.6087-1.3582-5.0406-2.9336-7.1484zm-8.9453 9.1484c0.41141 3.7466 3.1093 6.7926 6.6738 7.7148-1.5278-2.2951-2.4535-4.9506-2.6777-7.7148h-3.9961zm6.0117 0c0.27119 2.6087 1.3582 5.0426 2.9336 7.1504 1.5754-2.1078 2.6624-4.5417 2.9336-7.1504h-5.8672zm7.8828 0c-0.22425 2.7642-1.1499 5.4198-2.6777 7.7148 3.5645-0.92229 6.2624-3.9683 6.6738-7.7148h-3.9961z" fill="primary"/><path d="m37.605 11.746c-1.662 0-3 1.338-3 3v2.7501h-22.605c-2.77 0-5 2.23-5 5v0.5918h50v-8.3419c0-1.662-1.338-3-3-3z" fill="secondary"/></svg>
