<svg width="64" height="64" version="1.1" viewBox="0 0 64 64" xml:space="preserve" xmlns="http://www.w3.org/2000/svg" xmlns:xlink="http://www.w3.org/1999/xlink"><path d="m7 24.016v24.865c0 2.77 2.23 5 5 5h40c2.77 0 5-2.23 5-5v-24.865h-50zm22 4.9316h6a1.0001 1.0001 0 0 1 0.83203 0.44531l1.7031 2.5547h3.4648c1.645 0 3 1.355 3 3v11c0 1.645-1.355 3-3 3h-18c-1.645 0-3-1.355-3-3v-11c0-1.645 1.355-3 3-3h3.4648l1.7031-2.5547a1.0001 1.0001 0 0 1 0.83203-0.44531zm0.53516 2-1.7031 2.5566a1.0001 1.0001 0 0 1-0.83203 0.44336h-4c-0.56413 0-1 0.43587-1 1v11c0 0.56413 0.43587 1 1 1h18c0.56413 0 1-0.43587 1-1v-11c0-0.56413-0.43587-1-1-1h-4a1.0001 1.0001 0 0 1-0.83203-0.44336l-1.7031-2.5566h-4.9297zm2.4648 4c2.7496 0 5 2.2504 5 5s-2.2504 5-5 5-5-2.2504-5-5 2.2504-5 5-5zm0 2c-1.6687 0-3 1.3313-3 3s1.3313 3 3 3 3-1.3313 3-3-1.3313-3-3-3z" fill="primary"/><path d="m37.605 11.746c-1.662 0-3 1.338-3 3v2.7501h-22.605c-2.77 0-5 2.23-5 5v0.5918h50v-8.3419c0-1.662-1.338-3-3-3z" fill="secondary"/></svg>
