<svg width="64" height="64" version="1.1" viewBox="0 0 64 64" xml:space="preserve" xmlns="http://www.w3.org/2000/svg" xmlns:xlink="http://www.w3.org/1999/xlink"><path d="m7 24.016v24.865c0 2.77 2.23 5 5 5h40c2.77 0 5-2.23 5-5v-24.865h-50zm29.885 6.7832c3.2 0-0.2 4.7988-2 4.7988-1.7 0-1.1-4.7988 2-4.7988zm-5 0.79883h0.20117c1.5 0 0.49961 3.3008-0.40039 3.3008-1-0.1-1.6008-3.1008 0.19922-3.3008zm-2.8984 1.0996c1 0.1 0.89922 2.8 0.19922 3-0.8 0.1-1.9996-2.2984-0.59961-2.8984 0.2-0.1 0.30039-0.10156 0.40039-0.10156zm-2.4004 2c0.9 0 1.2992 2.4012 0.69922 2.7012-0.7 0.3-2.1996-1.6996-1.0996-2.5996 0.1-0.1 0.30039-0.10156 0.40039-0.10156zm6.7988 2c1.5 0 2.7004 0.5 2.9004 1.5 0.5 3.2-7.4004 4.3016-4.4004 6.6016 0.9 0.8 1.8012 0.19961 1.7012-0.90039-0.1-0.9 3.3-1.4996 3-0.09961-0.4 1.8-2.2008 3.2988-3.8008 3.2988-3.2 0-6.2992-3.8996-5.6992-6.5996 0.5-2.6 3.7988-3.8008 6.2988-3.8008z" fill="primary"/><path d="m37.605 11.746c-1.662 0-3 1.338-3 3v2.7501h-22.605c-2.77 0-5 2.23-5 5v0.5918h50v-8.3419c0-1.662-1.338-3-3-3z" fill="secondary"/></svg>
