<svg width="64" height="64" version="1.1" viewBox="0 0 64 64" xml:space="preserve" xmlns="http://www.w3.org/2000/svg" xmlns:xlink="http://www.w3.org/1999/xlink"><path d="m7 24.016v24.865c0 2.77 2.23 5 5 5h40c2.77 0 5-2.23 5-5v-24.865h-50zm25 6.4355c4.016 0 8.0329 1.4153 11.242 4.2441a1 1 0 0 1 0.08789 1.4102 1 1 0 0 1-1.4121 0.08789c-5.6745-5.0019-14.161-5.0019-19.836 0a1 1 0 0 1-1.4121-0.08789 1 1 0 0 1 0.08789-1.4102c3.2092-2.8289 7.2262-4.2441 11.242-4.2441zm0.039062 4.998c2.7289 0 5.4594 0.92641 7.6816 2.7773a1 1 0 0 1 0.12695 1.4082 1 1 0 0 1-1.4082 0.12695c-3.7128-3.0925-9.086-3.0925-12.799 0a1 1 0 0 1-1.4082-0.12695 1 1 0 0 1 0.12695-1.4082c2.2222-1.8509 4.9508-2.7773 7.6797-2.7773zm-0.033203 4.998c1.4209 0 2.8404 0.43166 4.0527 1.293a1 1 0 0 1 0.23633 1.3926 1 1 0 0 1-1.3945 0.23633c-1.737-1.234-4.054-1.234-5.791 0a1 1 0 0 1-1.3945-0.23633 1 1 0 0 1 0.23633-1.3926c1.2123-0.86131 2.6338-1.293 4.0547-1.293zm-0.005859 4.998h0.009766a1 1 0 0 1 1 1 1 1 0 0 1-1 1h-0.009766a1 1 0 0 1-1-1 1 1 0 0 1 1-1z" fill="primary"/><path d="m37.605 11.746c-1.662 0-3 1.338-3 3v2.7501h-22.605c-2.77 0-5 2.23-5 5v0.5918h50v-8.3419c0-1.662-1.338-3-3-3z" fill="secondary"/></svg>
