<svg width="64" height="64" version="1.1" viewBox="0 0 64 64" xml:space="preserve" xmlns="http://www.w3.org/2000/svg" xmlns:xlink="http://www.w3.org/1999/xlink"><path d="m7 24.016v24.865c0 2.77 2.23 5 5 5h40c2.77 0 5-2.23 5-5v-24.865h-50zm19 4.9316c2.1973 0 4 1.8027 4 4 0 1.8524-1.2812 3.4252-3 3.873v11.127a1 1 0 0 1-1 1 1 1 0 0 1-1-1v-11.127c-1.7188-0.44782-3-2.0206-3-3.873 0-2.1973 1.8027-4 4-4zm0 2c-1.1164 0-2 0.88359-2 2s0.88359 2 2 2 2-0.88359 2-2-0.88359-2-2-2zm7 1h3c1.645 0 3 1.355 3 3v6.127c1.7188 0.44782 3 2.0206 3 3.873 0 2.1973-1.8027 4-4 4s-4-1.8027-4-4c0-1.8524 1.2812-3.4252 3-3.873v-6.127c0-0.56413-0.43587-1-1-1h-3a1 1 0 0 1-1-1 1 1 0 0 1 1-1zm5 11c-1.1164 0-2 0.88359-2 2s0.88359 2 2 2 2-0.88359 2-2-0.88359-2-2-2z" fill="primary"/><path d="m37.605 11.746c-1.662 0-3 1.338-3 3v2.7501h-22.605c-2.77 0-5 2.23-5 5v0.5918h50v-8.3419c0-1.662-1.338-3-3-3z" fill="secondary"/></svg>
