<svg width="64" height="64" version="1.1" viewBox="0 0 64 64" xml:space="preserve" xmlns="http://www.w3.org/2000/svg"><path d="m5.0959 24.016 1.9041 24.865c0.2115 2.7619 2.23 5 5 5h40c2.77 0 5-2.23 5-5l2.0796-24.865zm26.904 4.9316c0.55228 0 1 0.44772 1 1v9.5879l3.293-3.2949c0.39051-0.39042 1.0236-0.39042 1.4141 0 0.39042 0.39051 0.39042 1.0236 0 1.4141l-5 5c-0.12373 0.12431-0.27798 0.21389-0.44726 0.25976-0.04237 0.01128-0.08543 0.01976-0.12891 0.02539-0.0434 0.0055-0.08712 0.0081-0.13086 0.0078-0.08702 1.96e-4 -0.17368-0.01097-0.25781-0.0332h-2e-3c-0.04191-0.01163-0.08301-0.02598-0.12305-0.04297-0.12125-0.05029-0.23142-0.12395-0.32422-0.2168l-5-5c-0.39042-0.39051-0.39042-1.0236 0-1.4141 0.18751-0.18754 0.44183-0.29293 0.70703-0.29297 0.2652 4e-5 0.51952 0.10542 0.70703 0.29297l3.293 3.2949v-9.5879c0-0.55228 0.44772-1 1-1zm-9 12c0.55228 0 1 0.44772 1 1v4c0 0.56413 0.43587 1 1 1h14c0.56413 0 1-0.43587 1-1v-4c0-0.55228 0.44772-1 1-1s1 0.44772 1 1v4c0 1.645-1.355 3-3 3h-14c-1.645 0-3-1.355-3-3v-4c0-0.55228 0.44772-1 1-1z" fill="primary"/><path d="m37.605 11.746c-1.662 0-3 1.338-3 3v2.7501h-22.605c-2.77 0-5 2.23-5 5v0.5918h50v-8.3419c0-1.662-1.338-3-3-3z" fill="secondary"/></svg>
