<svg width="64" height="64" version="1.1" viewBox="0 0 64 64" xml:space="preserve" xmlns="http://www.w3.org/2000/svg" xmlns:xlink="http://www.w3.org/1999/xlink"><path d="m7 24.016v24.865c0 2.77 2.23 5 5 5h40c2.77 0 5-2.23 5-5v-24.865h-50zm24.049 8.6816v0.001953c1.4284-5.23e-4 2.6725 0.8156 3.2891 2.0059 0.07016-0.0044 0.14059-0.007899 0.21094-0.007812 1.8059-5.04e-4 3.2829 1.4656 3.3008 3.2676 1.3544 0.42389 2.3788 1.6083 2.5684 3.0488 1.0288 0.13277 1.8318 1.021 1.832 2.084 0.001127 1.1545-0.94515 2.0993-2.0996 2.0996-0.53929-9.7e-5 -1.0512-0.20625-1.4355-0.56641-0.56997 0.35942-1.2438 0.56623-1.9648 0.56641-0.85188 2.49e-4 -1.6745-0.29153-2.3301-0.82227-0.71449 0.45739-1.562 0.72266-2.4707 0.72266-0.89756-1e-6 -1.7364-0.25801-2.4453-0.70508-0.3911 0.50023-0.99765 0.80463-1.6543 0.80469-0.492-1.2e-4 -0.94553-0.17028-1.3047-0.45703-0.46172 0.2344-0.97437 0.35796-1.4961 0.35742-1.8156-7.6e-4 -3.2981-1.4833-3.2988-3.2988-3.84e-4 -1.5112 1.0293-2.8191 2.4609-3.1953 0.15942-0.90671 0.62529-1.7114 1.291-2.3008-0.03556-0.16532-0.052905-0.33382-0.052734-0.50391-2.71e-4 -1.3199 1.0805-2.4007 2.4004-2.4004 0.28854 1.3e-5 0.57513 0.051726 0.84375 0.15234 0.64075-0.53152 1.4615-0.8533 2.3555-0.85352zm0 1c-0.77737 1.9e-4 -1.4696 0.32999-1.9609 0.85156-0.069696 0.073875-0.13676 0.14972-0.19727 0.23047-0.01835 0.02449-0.033261 0.051032-0.050781 0.076172-0.058169 0.08343-0.11383 0.16851-0.16211 0.25781-0.01957 0.036268-0.036757 0.074078-0.054687 0.11133-0.039576 0.08203-0.078205 0.1642-0.10938 0.25-0.01851 0.05125-0.031415 0.10554-0.046875 0.1582-0.02574 0.08701-0.053293 0.17394-0.070313 0.26367v0.001954c-0.02525 0.13534-0.040421 0.27248-0.044922 0.41016-1e-3 0.02908-0.001946 0.05858-0.001953 0.08789 0 0.043956 0.002313 0.086367 0.007813 0.12891v0.003906c0.035917 0.27226 0.17654 0.51979 0.28711 0.77539 0.045129-0.046693 0.089669-0.093912 0.13672-0.13867 0.083469-0.076194 0.17092-0.14891 0.25977-0.21875 0.070817-0.058123 0.13865-0.11994 0.21289-0.17383 0.00467-0.0032 0.008972-0.008519 0.013672-0.011719 0.083374-0.05736 0.16888-0.11238 0.25586-0.16406l0.001953 0.003906c0.073143-0.045711 0.14295-0.097031 0.21875-0.13867l-0.001953-0.003907c0.17548-0.095714 0.3585-0.17985 0.54492-0.25195 0.51394-0.20007 1.0729-0.30976 1.6562-0.31055 0.0021-3e-6 0.00376 0 0.00586 0 0.079596 8e-5 0.16039 0.003619 0.23828 0.011719 0.54989 0.028458 1.0758 0.1495 1.5586 0.35547-0.00661-0.13238-0.024871-0.26479-0.050782-0.39453-0.003399-0.01695-0.006165-0.031988-0.009765-0.048829-0.029458-0.13406-0.067568-0.26604-0.11719-0.39453l-0.041015-0.10742c-0.41556-0.95435-1.3668-1.6215-2.4785-1.6211zm-3.1992 0.70117c-0.73811-1.52e-4 -1.3336 0.55437-1.3945 1.2754 0.32678-0.15357 0.6781-0.26371 1.0469-0.32422 0.099403-0.33519 0.245-0.65094 0.42969-0.93945-0.02642-0.00807-0.053892-0.011718-0.082032-0.011718zm6.8398 1.334c0.03427 0.18729 0.051941 0.38036 0.056641 0.57617v0.001953c7e-4 0.02882 0.003893 0.05892 0.003906 0.087891 1e-5 0.071051-0.004319 0.14237-0.011719 0.21289-0.00417 0.074118-0.005172 0.14894-0.013672 0.22266 0.40354 0.30657 0.75508 0.67886 1.0391 1.0996 0.23266-0.064377 0.4719-0.099318 0.71289-0.11719 0.09017-0.01188 0.18161-0.017608 0.27344-0.017578h0.001953c0.00526 3e-6 0.010425-2.6e-5 0.015625 0-0.11025-1.116-0.95342-1.9932-2.0781-2.0664zm-7.3359 0.83984c-1.2408 0.37178-2.2025 1.3747-2.2031 2.7227v0.003906c9e-5 0.93578 0.48395 1.7597 1.2129 2.3203 0.27537-0.27657 0.62752-0.47816 1.0195-0.56836-0.02177-0.18063-0.033117-0.36444-0.033203-0.55078v-0.001953-0.003906c3e-4 -0.096148 0.006908-0.18932 0.017579-0.2832 0.04224-0.67576 0.22305-1.3145 0.52734-1.8809-0.32409-0.52951-0.51122-1.1361-0.54102-1.7578zm4.5957 0.32617c-0.22814 0-0.45183 0.0223-0.66797 0.0625-0.10899 0.02053-0.21628 0.045871-0.32227 0.076171-0.10599 0.030289-0.21013 0.065749-0.3125 0.10547-0.1459 0.056425-0.2865 0.12236-0.42383 0.19727-0.064971 0.035488-0.12873 0.071888-0.19141 0.11133l0.003906 0.007812c-0.071864 0.042696-0.14222 0.087166-0.21094 0.13477v-0.001953c-0.058157 0.042513-0.11626 0.086782-0.17188 0.13281l0.005859 0.007813c-0.069538 0.05466-0.13585 0.11224-0.20117 0.17188l-0.001953-0.001953c-0.040511 0.038901-0.080371 0.07825-0.11914 0.11914l0.005859 0.00586c-0.069947 0.071492-0.13741 0.14559-0.20117 0.22266l-0.001953-0.001953c-0.036401 0.045462-0.073092 0.091252-0.10742 0.13867l0.007812 0.005859c-0.22169 0.30456-0.3915 0.64079-0.50781 0.99414-7e-4 2e-3 -0.001305 0.003859-0.001953 0.005859-0.054974 0.16799-0.097193 0.33896-0.12695 0.51367-0.0022 0.01241-0.00386 0.024669-0.00586 0.037109-0.029 0.18178-0.046106 0.36693-0.046875 0.55274v0.001953 0.001953c0.00114 0.18491 0.017535 0.36878 0.046875 0.55078 0.001091 0.00647 8.53e-4 0.013031 0.001954 0.019531 0.030322 0.18177 0.074802 0.3616 0.13281 0.53711l-0.005859 0.001953c0.01515 0.046672 0.029855 0.092762 0.046875 0.13867h0.001953c0.02761 0.06893 0.05607 0.13604 0.08789 0.20312l-0.005859 0.001953c0.056637 0.12796 0.12045 0.25283 0.19141 0.37305 0.070957 0.12022 0.1499 0.23639 0.23438 0.34766 0.074131 0.09763 0.15431 0.18943 0.23828 0.2793 0.01511 0.01618 0.029512 0.032928 0.044922 0.048828 0.072753 0.075032 0.15105 0.14605 0.23047 0.21484 0.057609 0.049868 0.11309 0.10227 0.17383 0.14844 0.60433 0.45936 1.3587 0.73242 2.1797 0.73242 0.79471 0 1.5269-0.25456 2.1211-0.6875 0.056508-0.041173 0.10818-0.088492 0.16211-0.13281 0.068743-0.056535 0.13727-0.11284 0.20117-0.17383 0.03265-0.03114 0.0623-0.065317 0.09375-0.097657 0.061129-0.062916 0.12163-0.12649 0.17773-0.19336 0.02955-0.035196 0.055774-0.073045 0.083984-0.10938 0.053399-0.068861 0.10812-0.13664 0.15625-0.20898 0.025741-0.03865 0.048006-0.079451 0.072266-0.11914 0.045449-0.074404 0.09097-0.14913 0.13086-0.22656 0.016299-0.031671 0.029541-0.065447 0.044921-0.097657 0.044357-0.092786 0.086757-0.18686 0.12305-0.2832v-0.001953h0.001953c0.0031-0.00827 0.004813-0.017091 0.007813-0.025391 0.040409-0.10996 0.075889-0.22215 0.10547-0.33594 0.01788-0.069286 0.031112-0.14008 0.044921-0.21094 0.01182-0.060076 0.026357-0.11887 0.035157-0.17969 0.01929-0.13547 0.031256-0.27407 0.035156-0.41406 2e-4 -0.00609 0.001813-0.011478 0.001953-0.017578v-0.005859l-0.007812-0.1875c-0.00232-0.062975-0.006019-0.12668-0.011719-0.18945h0.007812c-0.00515-0.061289-0.013184-0.12276-0.021484-0.18359h-0.001953c-0.01267-0.081106-0.028685-0.16214-0.046875-0.24219l0.007812-0.001954c-0.01291-0.062402-0.028711-0.12394-0.044921-0.18555-0.018251-0.063995-0.038787-0.12656-0.060547-0.18945l0.005859-0.001953c-0.00917-0.02837-0.02135-0.055834-0.03125-0.083984-0.03503-0.10059-0.075691-0.19867-0.11914-0.29492-0.036998-0.08164-0.074037-0.1632-0.11719-0.24219l-0.001953-0.001954c-0.071485-0.13081-0.14969-0.25666-0.23633-0.37695-0.2593-0.36005-0.58315-0.67256-0.95703-0.91602v-0.001954h-0.001953v0.001954h-0.001953l-0.0625-0.041016h-0.001953c-0.13042-0.080593-0.26556-0.15184-0.4043-0.21484-0.00612-0.0028-0.011478-0.007065-0.017578-0.009765v-0.001953h-0.001953c-0.29072-0.12983-0.59952-0.22028-0.91406-0.26953-0.15769-0.02469-0.31598-0.039468-0.47656-0.042968-0.02654-5.8e-4 -0.053488-9e-6 -0.080078 0zm4.7988 1.9004c-0.1676 3.7e-4 -0.32853 0.047474-0.49024 0.089844 0.051583 0.1374 0.094393 0.27865 0.13281 0.42188v0.001953c0.045602 0.17028 0.081562 0.34411 0.10742 0.52148 0.0014 0.00846 0.002606 0.016891 0.003906 0.025391 0.02179 0.15554 0.037269 0.31261 0.042969 0.47266 4e-4 0.0092 0.001678 0.018144 0.001953 0.027344v0.001953l0.017578 0.25977-0.017578 0.011718c-0.033384 1.1522-0.49289 2.1996-1.2266 2.9902 0.43212 0.3049 0.89464 0.57633 1.4297 0.57617 0.6019-1.46e-4 1.1559-0.19347 1.6035-0.52344l0.001953-0.001953c0.043087-0.031826 0.081997-0.069235 0.12305-0.10352 0.2975-0.24812 0.53401-0.5527 0.69922-0.89258 0.00811-0.01675 0.015638-0.033841 0.023438-0.050781 0.03455-0.074992 0.06619-0.15253 0.09375-0.23047v-0.001953c0.03127-0.088631 0.058168-0.17775 0.080078-0.26953v-0.001953l0.001953-0.001953v-0.001953c0.0467-0.19761 0.071352-0.40234 0.072266-0.60938v-0.011719c-3.16e-4 -1.2957-0.90205-2.3712-2.1152-2.6367l-0.007812-0.003906c-0.054358-0.01172-0.11047-0.016991-0.16602-0.025391-0.048985-0.00755-0.097154-0.016584-0.14648-0.021484-0.086827-0.00837-0.17456-0.011698-0.26367-0.011719h-0.001953zm-12.564 1.0078c-0.81851 0.35295-1.4338 1.0612-1.4336 1.9922 5.33e-4 1.2754 1.0234 2.2983 2.2988 2.2988 0.29908 3.07e-4 0.57408-0.11324 0.84375-0.23828-0.092738-0.23652-0.14283-0.49352-0.14258-0.76172v-0.003906c1e-4 -0.0275 0.002759-0.055171 0.005859-0.082031 0.00652-0.15874 0.026087-0.3129 0.066407-0.46094-0.90376-0.64678-1.4971-1.6441-1.6387-2.7441zm16.219 2.2793c-0.10973 0.68254-0.40739 1.3038-0.83789 1.8086 0.17456 0.14992 0.35068 0.30269 0.58594 0.30274 0.61376-1.49e-4 1.1002-0.48585 1.0996-1.0996-1.26e-4 -0.51685-0.36946-0.8953-0.84766-1.0117zm-12.758 0.033203c-0.23461 0.054975-0.47252 0.12978-0.63867 0.29102-0.074411 0.084663-0.13616 0.18288-0.17969 0.28906-0.01391 0.035712-0.026999 0.070482-0.03711 0.10742-0.01281 0.045345-0.022696 0.092555-0.029296 0.14062v0.001953c-0.0065 0.047475-0.009754 0.096654-0.009766 0.14648v0.001953c1e-4 0.036362 0.002459 0.072022 0.005859 0.10742 0.021321 0.21724 0.10597 0.42437 0.24609 0.59375l0.046875 0.056641c0.19956 0.21092 0.48332 0.34172 0.80078 0.3418 0.34597-3.1e-5 0.61386-0.21762 0.80664-0.49414-0.37275-0.3825-0.67392-0.83147-0.89648-1.3242-0.0333-0.070222-0.065534-0.14092-0.095704-0.21289-0.006429-0.01534-0.013331-0.029542-0.019531-0.044922v-0.001953z" fill="primary"/><path d="m37.605 11.746c-1.662 0-3 1.338-3 3v2.7501h-22.605c-2.77 0-5 2.23-5 5v0.5918h50v-8.3419c0-1.662-1.338-3-3-3z" fill="secondary"/></svg>
