<svg width="64" height="64" version="1.1" viewBox="0 0 64 64" xml:space="preserve" xmlns="http://www.w3.org/2000/svg" xmlns:xlink="http://www.w3.org/1999/xlink"><path d="m5.1033 24.016 1.8967 24.865c0.21069 2.762 2.23 5 5 5h40c2.77 0 5-2.23 5-5l2.1037-24.865zm26.891 9.9336c2.4096 0 4.4361 1.7279 4.9004 4.0059 0.03693-0.0047 0.0741-0.0073 0.11133-0.0078h5.9492c0.55228 0 1 0.44772 1 1s-0.44772 1-1 1h-5.9492c-0.03719 1.18e-4 -0.07436-0.0018-0.11133-0.0059-0.46425 2.278-2.4908 4.0059-4.9004 4.0059-2.4092 0-4.4357-1.7285-4.9004-4.0059-0.03308 0.0036-0.06633 0.0056-0.09961 0.0059h-5.9492c-0.55228 0-1-0.44772-1-1s0.44772-1 1-1h5.9492c0.03331 9.43e-4 0.06656 0.0036 0.09961 0.0078 0.46472-2.2773 2.4912-4.0059 4.9004-4.0059zm0 2c-1.6687 0-3 1.3313-3 3s1.3313 3 3 3c1.6687 0 3-1.3313 3-3s-1.3313-3-3-3z" fill="primary"/><path d="m37.605 11.746c-1.662 0-3 1.338-3 3v2.7501h-22.605c-2.77 0-5 2.23-5 5v0.5918h50v-8.3419c0-1.662-1.338-3-3-3z" fill="secondary"/></svg>
