<svg width="64" height="64" version="1.1" viewBox="0 0 64 64" xml:space="preserve" xmlns="http://www.w3.org/2000/svg" xmlns:xlink="http://www.w3.org/1999/xlink"><path d="m7 24.016v24.865c0 2.77 2.23 5 5 5h40c2.77 0 5-2.23 5-5v-24.865h-50zm26.9 8.7324c2.7 0 4.9004 2.3 4.9004 5v0.19922c1.5 0.5 2.5 1.9 2.5 3.5 0 2-1.6012 3.7012-3.7012 3.7012h-11.199c-2 0-3.7012-1.6012-3.7012-3.7012 0-1.6 1-3 2.5-3.5 0.2-1.6 1.5016-2.6992 3.1016-2.6992 0.4 0 0.79922-7.81e-4 1.1992 0.19922 0.8-1.7 2.5004-2.6992 4.4004-2.6992zm0 3.0996c-0.7 0-1.4012 0.4-1.7012 1-0.7 1.5-2.3984 2.1-3.8984 1.5-0.2 1.1-1.0016 2.1-2.1016 2.5-0.2 0.1-0.39844 0.29961-0.39844 0.59961 0 0.4 0.19961 0.60156 0.59961 0.60156h11.299c0.4 0 0.60156-0.20156 0.60156-0.60156 0-0.3-0.10039-0.49961-0.40039-0.59961-1.3-0.4-2.1996-1.6996-2.0996-3.0996 0-1.1-0.80039-1.9004-1.9004-1.9004z" fill="primary"/><path d="m37.605 11.746c-1.662 0-3 1.338-3 3v2.7501h-22.605c-2.77 0-5 2.23-5 5v0.5918h50v-8.3419c0-1.662-1.338-3-3-3z" fill="secondary"/></svg>
