<svg width="64" height="64" version="1.1" viewBox="0 0 64 64" xml:space="preserve" xmlns="http://www.w3.org/2000/svg"><path d="m7 24.016v24.865c0 2.77 2.23 5 5 5h40c2.77 0 5-2.23 5-5v-24.865h-50zm19 3.9316h8a1.0001 1.0001 0 0 1 0.38281 0.076172 1 1 0 0 1 0.32422 0.2168l6 6a1.0001 1.0001 0 0 1 0.085938 0.097657 1 1 0 0 1 0.072265 0.10938 1.0001 1.0001 0 0 1 0.058594 0.11719 1 1 0 0 0 0 0.001953 1.0001 1.0001 0 0 1 0.042969 0.12109 1 1 0 0 0 0 0.001953 1.0001 1.0001 0 0 1 0.025391 0.12695 1 1 0 0 1 0.007812 0.13086v12c0 1.645-1.355 3-3 3h-12c-1.645 0-3-1.355-3-3v-16c0-1.645 1.355-3 3-3zm0 2c-0.56413 0-1 0.43587-1 1v16c0 0.56413 0.43587 1 1 1h12c0.56413 0 1-0.43587 1-1v-11h-5a1.0001 1.0001 0 0 1-1-1v-5h-7zm9 1.416v2.584h2.584l-2.584-2.584zm-7 3.584h1 1a1 1 0 0 1 1 1 1 1 0 0 1-1 1h-1-1a1 1 0 0 1-1-1 1 1 0 0 1 1-1zm0 4h8a1 1 0 0 1 1 1 1 1 0 0 1-1 1h-8a1 1 0 0 1-1-1 1 1 0 0 1 1-1zm0 4h8a1 1 0 0 1 1 1 1 1 0 0 1-1 1h-8a1 1 0 0 1-1-1 1 1 0 0 1 1-1z" fill="primary"/><path d="m37.605 11.746c-1.662 0-3 1.338-3 3v2.7501h-22.605c-2.77 0-5 2.23-5 5v0.5918h50v-8.3419c0-1.662-1.338-3-3-3z" fill="secondary"/></svg>
