<svg width="64" height="64" version="1.1" viewBox="0 0 64 64" xml:space="preserve" xmlns="http://www.w3.org/2000/svg" xmlns:xlink="http://www.w3.org/1999/xlink"><path d="m7 24.016v24.865c0 2.77 2.23 5 5 5h40c2.77 0 5-2.23 5-5v-24.865h-50zm25.449 7.9316c2.2 0 4.3016 1.1 5.6016 3 1.7 0 3 1.3 3 3 0 0.7-0.30117 1.4004-0.70117 1.9004 1 0.5 1.7012 1.6008 1.7012 2.8008 0 1.8-1.5008 3.2988-3.3008 3.2988h-11.801c-2.8 0-5-2.2-5-5 0-2.6 1.9-4.7 4.5-5 1-2.4 3.4-4 6-4zm0.30078 1.9004c-2.4 0-4.5 2-4.5 4.5s2 4.5 4.5 4.5 4.5-2 4.5-4.5-2-4.5-4.5-4.5zm0 1.3008c1.8-1e-6 3.1992 1.3996 3.1992 3.0996 0 1.8-1.3992 3.1992-3.1992 3.1992-0.7 0-1.3004-0.19961-1.9004-0.59961v0.09961c-0.8-0.7-1.2988-1.5996-1.2988-2.5996 0-1.1 0.49883-1.9996 1.2988-2.5996 0.5-0.4 1.2004-0.59961 1.9004-0.59961zm-1.9004 0.59961v3.0996 2h1.3008v-1.9004h1c1 0 1.5996-0.29922 1.5996-1.6992 0-1.2-0.69961-1.5-1.5996-1.5h-1-1.3008zm1.3008 1.3008h0.59961c0.4 0 0.59961-0.001172 0.59961 0.29883s-0.19961 0.30078-0.59961 0.30078h-0.59961v-0.59961z" fill="primary"/><path d="m37.605 11.746c-1.662 0-3 1.338-3 3v2.7501h-22.605c-2.77 0-5 2.23-5 5v0.5918h50v-8.3419c0-1.662-1.338-3-3-3z" fill="secondary"/></svg>
