<svg width="64" height="64" version="1.1" viewBox="0 0 64 64" xml:space="preserve" xmlns="http://www.w3.org/2000/svg"><path d="m7 24.016v24.865c0 2.77 2.23 5 5 5h40c2.77 0 5-2.23 5-5v-24.865h-50zm16.494 5.4492a1.0001 1.0001 0 0 1 0.40625 0.076172l16.969 7.0684a1.0001 1.0001 0 0 1-0.0625 1.8711l-5.8672 1.9922 5.2832 5.2832a1 1 0 0 1 0 1.4141 1 1 0 0 1-1.4141 0l-5.2832-5.2832-1.9941 5.8691a1.0001 1.0001 0 0 1-1.8691 0.0625l-7.0703-16.971a1.0001 1.0001 0 0 1 0.90234-1.3828zm1.877 2.8555 5.1191 12.285 1.6582-4.8828a1.0001 1.0001 0 0 1 0.625-0.62695l4.8809-1.6582-12.283-5.1172z" fill="primary"/><path d="m37.605 11.746c-1.662 0-3 1.338-3 3v2.7501h-22.605c-2.77 0-5 2.23-5 5v0.5918h50v-8.3419c0-1.662-1.338-3-3-3z" fill="secondary"/></svg>
