<svg width="64" height="64" version="1.1" viewBox="0 0 64 64" xml:space="preserve" xmlns="http://www.w3.org/2000/svg"><path d="m7 24.016v24.865c0 2.77 2.23 5 5 5h40c2.77 0 5-2.23 5-5v-24.865h-50zm25 2.9316c1.645 0 3 1.355 3 3v0.08789c0.001044 0.26175 0.15397 0.49063 0.39453 0.59375a1.0001 1.0001 0 0 1 0.009766 0.003906c0.24586 0.10851 0.52469 0.059013 0.7168-0.12891l0.050781-0.052734c1.163-1.1643 3.0806-1.1634 4.2441 0 1.1647 1.1634 1.1647 3.0807 0 4.2441l-0.050782 0.052735c-0.18792 0.19211-0.23937 0.47094-0.13086 0.7168a1.0001 1.0001 0 0 1 0.021484 0.10156c0.10659 0.22693 0.32217 0.37806 0.57422 0.38086h0.16992c1.645 0 3 1.355 3 3 0 1.645-1.355 3-3 3h-0.085938c-0.26175 0.001044-0.49259 0.15394-0.5957 0.39453a1.0001 1.0001 0 0 1-0.003906 0.009765c-0.10851 0.24586-0.057059 0.52469 0.13086 0.7168l0.050782 0.052735c1.1647 1.1634 1.1647 3.0807 0 4.2441-1.1636 1.1634-3.0812 1.1643-4.2441 0l-0.050781-0.052734c-0.19211-0.18792-0.47094-0.23741-0.7168-0.12891a1.0001 1.0001 0 0 1-0.009766 0.003906c-0.24059 0.10311-0.39353 0.33395-0.39453 0.5957v0.16406c0 1.645-1.355 3-3 3-1.645 0-3-1.355-3-3v-0.066407c-0.006313-0.26991-0.17239-0.50056-0.42578-0.59375a1.0001 1.0001 0 0 1-0.058594-0.023437c-0.24586-0.10851-0.52469-0.059012-0.7168 0.12891l-0.050781 0.052734c-1.163 1.1643-3.0806 1.1634-4.2441 0-1.1647-1.1634-1.1647-3.0807 0-4.2441l0.050782-0.052734c0.18792-0.19211 0.23937-0.47094 0.13086-0.7168a1.0001 1.0001 0 0 1-0.003906-0.009766c-0.10311-0.24059-0.33395-0.39353-0.5957-0.39453h-0.16602c-1.645 0-3-1.355-3-3 0-1.645 1.355-3 3-3h0.068359c0.26862-0.007471 0.5009-0.17138 0.59375-0.42383a1.0001 1.0001 0 0 1 0.023438-0.058594c0.10851-0.24586 0.05706-0.52469-0.13086-0.7168l-0.050782-0.052734c-1.1647-1.1634-1.1647-3.0807 0-4.2441 1.1636-1.1634 3.0812-1.1643 4.2441 0l0.050781 0.052734c0.19211 0.18792 0.47094 0.23741 0.7168 0.12891a1.0001 1.0001 0 0 1 0.10156-0.021485c0.22836-0.10726 0.38181-0.32411 0.38281-0.57812v-0.16602c0-1.645 1.355-3 3-3zm0 2c-0.56413 0-1 0.43587-1 1v0.17188a1.0001 1.0001 0 0 1 0 0.003906c-0.004202 1.0535-0.63712 2.0088-1.6055 2.4238a1.0001 1.0001 0 0 1-0.26758 0.074219c-0.9427 0.32884-2.0049 0.098481-2.7266-0.60742a1.0001 1.0001 0 0 1-0.007813-0.007813l-0.060547-0.060547c-0.39901-0.39946-1.015-0.39946-1.4141 0a1.0001 1.0001 0 0 0-0.001953 0c-0.39946 0.39902-0.39946 1.017 0 1.416a1.0001 1.0001 0 0 0 0.001953 0l0.058593 0.060547a1.0001 1.0001 0 0 1 0.007813 0.007813c0.74729 0.76396 0.95289 1.9073 0.53516 2.8887-0.38266 1.0012-1.3326 1.6839-2.4062 1.709a1.0001 1.0001 0 0 1-0.023437 0h-0.089844c-0.56413 0-1 0.43587-1 1 0 0.56413 0.43587 1 1 1h0.16992a1.0001 1.0001 0 0 1 0.003906 0c1.0516 0.004194 2.0056 0.63813 2.4219 1.6035 0.43295 0.98712 0.22275 2.1452-0.53125 2.916a1.0001 1.0001 0 0 1-0.007812 0.007813l-0.058594 0.060546a1.0001 1.0001 0 0 0-0.001953 0c-0.39946 0.39901-0.39946 1.017 0 1.416a1.0001 1.0001 0 0 0 0.001953 0c0.39901 0.39946 1.015 0.39946 1.4141 0l0.060547-0.060547a1.0001 1.0001 0 0 1 0.007813-0.007812c0.76395-0.74729 1.9093-0.95094 2.8906-0.5332 1.0012 0.38267 1.6839 1.3307 1.709 2.4043a1.0001 1.0001 0 0 1 0 0.023438v0.089844c0 0.56413 0.43587 1 1 1 0.56413 0 1-0.43587 1-1v-0.16992a1.0001 1.0001 0 0 1 0-0.003906c0.004194-1.0516 0.63618-2.0037 1.6016-2.4199 0.98712-0.43295 2.1472-0.2247 2.918 0.5293a1.0001 1.0001 0 0 1 0.007813 0.007813l0.060547 0.060547c0.39901 0.39946 1.015 0.39946 1.4141 0a1.0001 1.0001 0 0 0 0.001953 0c0.39946-0.39901 0.39946-1.017 0-1.416a1.0001 1.0001 0 0 0-0.001953 0l-0.058593-0.060547a1.0001 1.0001 0 0 1-0.007813-0.007812c-0.754-0.77082-0.9642-1.9289-0.53125-2.916 0.41623-0.96538 1.3703-1.5974 2.4219-1.6016a1.0001 1.0001 0 0 1 0.003906-0.001953h0.089844c0.56413 0 1-0.43587 1-1 0-0.56413-0.43587-1-1-1h-0.16992a1.0001 1.0001 0 0 1-0.003906 0c-1.0535-0.004202-2.0108-0.63712-2.4258-1.6055a1.0001 1.0001 0 0 1-0.072266-0.25977c-0.33177-0.944-0.10001-2.0092 0.60742-2.7324a1.0001 1.0001 0 0 1 0.007812-0.007812l0.058594-0.060547a1.0001 1.0001 0 0 0 0.001953 0c0.39946-0.39901 0.39946-1.017 0-1.416a1.0001 1.0001 0 0 0-0.001953 0c-0.39901-0.39946-1.015-0.39946-1.4141 0l-0.060547 0.060547a1.0001 1.0001 0 0 1-0.007813 0.007813c-0.77082 0.754-1.9308 0.96225-2.918 0.5293-0.96538-0.41623-1.5974-1.3683-1.6016-2.4199a1.0001 1.0001 0 0 1 0-0.003907v-0.091796c0-0.56413-0.43587-1-1-1zm0 6c2.1973 0 4 1.8027 4 4 0 2.1973-1.8027 4-4 4s-4-1.8027-4-4c0-2.1973 1.8027-4 4-4zm0 2c-1.1164 0-2 0.88358-2 2 0 1.1164 0.88359 2 2 2s2-0.88359 2-2c0-1.1164-0.88359-2-2-2z" fill="primary"/><path d="m37.605 11.746c-1.662 0-3 1.338-3 3v2.7501h-22.605c-2.77 0-5 2.23-5 5v0.5918h50v-8.3419c0-1.662-1.338-3-3-3z" fill="secondary"/></svg>
