<svg width="64" height="64" version="1.1" viewBox="0 0 64 64" xml:space="preserve" xmlns="http://www.w3.org/2000/svg" xmlns:xlink="http://www.w3.org/1999/xlink"><path d="m7 24.016v24.865c0 2.77 2.23 5 5 5h40c2.77 0 5-2.23 5-5v-24.865h-50zm25 5.9316c7.7619 0 11.895 8.5527 11.895 8.5527a1.0001 1.0001 0 0 1 0 0.89648s-4.1326 8.5508-11.895 8.5508-11.895-8.5508-11.895-8.5508a1.0001 1.0001 0 0 1 0-0.89648s4.1326-8.5527 11.895-8.5527zm0 2c-5.8634 0-9.3477 6.2096-9.7793 7 0.43163 0.79042 3.9159 7 9.7793 7s9.3477-6.2096 9.7793-7c-0.43163-0.79042-3.9159-7-9.7793-7zm0 3c2.1973 0 4 1.8027 4 4s-1.8027 4-4 4-4-1.8027-4-4 1.8027-4 4-4zm0 2c-1.1164 0-2 0.88359-2 2s0.88359 2 2 2 2-0.88359 2-2-0.88359-2-2-2z" fill="primary"/><path d="m37.605 11.746c-1.662 0-3 1.338-3 3v2.7501h-22.605c-2.77 0-5 2.23-5 5v0.5918h50v-8.3419c0-1.662-1.338-3-3-3z" fill="secondary"/></svg>
