<svg width="64" height="64" version="1.1" viewBox="0 0 64 64" xml:space="preserve" xmlns="http://www.w3.org/2000/svg" xmlns:xlink="http://www.w3.org/1999/xlink"><path d="m5.1033 24.016 1.8967 24.865c0.21069 2.762 2.23 5 5 5h40c2.77 0 5-2.23 5-5l2.1037-24.865zm26.897 3.9316c0.22241 7.95e-4 0.43821 0.07571 0.61328 0.21289l9 7c0.2432 0.18885 0.38586 0.4792 0.38672 0.78711v11c0 1.645-1.355 3-3 3h-14c-1.645 0-3-1.355-3-3v-11c8.64e-4 -0.30791 0.14352-0.59826 0.38672-0.78711l9-7c0.17507-0.13718 0.39087-0.2121 0.61328-0.21289zm0 2.2676-8 6.2207v10.512c0 0.56413 0.43587 1 1 1h3v-9c5.5e-5 -0.55226 0.44774-0.99994 1-1h6c0.55226 5.5e-5 0.99994 0.44774 1 1v9h3c0.56413 0 1-0.43587 1-1v-10.512zm-2 9.7324v8h4v-8z" fill="primary"/><path d="m37.605 11.746c-1.662 0-3 1.338-3 3v2.7501h-22.605c-2.77 0-5 2.23-5 5v0.5918h50v-8.3419c0-1.662-1.338-3-3-3z" fill="secondary"/></svg>
