<svg width="64" height="64" version="1.1" viewBox="0 0 64 64" xml:space="preserve" xmlns="http://www.w3.org/2000/svg" xmlns:xlink="http://www.w3.org/1999/xlink"><path d="m7 24.016v24.865c0 2.77 2.23 5 5 5h40c2.77 0 5-2.23 5-5v-24.865h-50zm25 3.9316a1.0001 1.0001 0 0 1 0.61328 0.21289l9 7a1.0001 1.0001 0 0 1 0.38672 0.78711v11c0 1.645-1.355 3-3 3h-4-6-4c-1.645 0-3-1.355-3-3v-11a1.0001 1.0001 0 0 1 0.38672-0.78711l9-7a1.0001 1.0001 0 0 1 0.61328-0.21289zm0 2.2676-8 6.2207v10.512c0 0.56413 0.43587 1 1 1h3v-9a1.0001 1.0001 0 0 1 1-1h6a1.0001 1.0001 0 0 1 1 1v9h3c0.56413 0 1-0.43587 1-1v-10.512l-8-6.2207zm-2 9.7324v8h4v-8h-4z" fill="primary"/><path d="m37.605 11.746c-1.662 0-3 1.338-3 3v2.7501h-22.605c-2.77 0-5 2.23-5 5v0.5918h50v-8.3419c0-1.662-1.338-3-3-3z" fill="secondary"/></svg>
