<svg width="64" height="64" version="1.1" viewBox="0 0 64 64" xml:space="preserve" xmlns="http://www.w3.org/2000/svg" xmlns:xlink="http://www.w3.org/1999/xlink"><path d="m7 24.016v24.865c0 2.77 2.23 5 5 5h40c2.77 0 5-2.23 5-5v-24.865h-50zm17 4.9316h16c1.6447 0 3 1.3553 3 3v10c0 1.6447-1.3553 3-3 3h-7v2h3a1 1 0 0 1 1 1 1 1 0 0 1-1 1h-8a1 1 0 0 1-1-1 1 1 0 0 1 1-1h3v-2h-7c-1.6447 0-3-1.3553-3-3v-10c0-1.6447 1.3553-3 3-3zm0 2c-0.5713 0-1 0.4287-1 1v10c0 0.5713 0.4287 1 1 1h8 8c0.5713 0 1-0.4287 1-1v-10c0-0.5713-0.4287-1-1-1h-16z" fill="primary"/><path d="m37.605 11.746c-1.662 0-3 1.338-3 3v2.7501h-22.605c-2.77 0-5 2.23-5 5v0.5918h50v-8.3419c0-1.662-1.338-3-3-3z" fill="secondary"/></svg>
